<svg width="920" height="685" viewBox="0 0 920 685" fill="none" xmlns="http://www.w3.org/2000/svg">
<g clip-path="url(#clip0_1329_16386)">
<path d="M920 601.979H0V602.438H920V601.979Z" fill="#EBEBEB"/>
<path d="M827.816 631.558H766.875V632.018H827.816V631.558Z" fill="#EBEBEB"/>
<path d="M609.443 636.559H593.453V637.018H609.443V636.559Z" fill="#EBEBEB"/>
<path d="M765.036 614.498H729.727V614.958H765.036V614.498Z" fill="#EBEBEB"/>
<path d="M175.993 617.586H96.5234V618.046H175.993V617.586Z" fill="#EBEBEB"/>
<path d="M204.038 617.586H192.391V618.046H204.038V617.586Z" fill="#EBEBEB"/>
<path d="M414.277 625.344H241.906V625.804H414.277V625.344Z" fill="#EBEBEB"/>
<path d="M436.099 519.987H80.7955C74.9995 519.987 70.2891 515.281 70.2891 509.49V10.4972C70.2891 4.70626 74.9995 0 80.7955 0H436.099C441.895 0 446.606 4.70626 446.606 10.4972V509.49C446.606 515.281 441.895 519.987 436.099 519.987ZM80.7955 0.459596C75.2571 0.459596 70.7491 4.96364 70.7491 10.4972V509.49C70.7491 515.023 75.2571 519.527 80.7955 519.527H436.099C441.638 519.527 446.146 515.023 446.146 509.49V10.4972C446.146 4.96364 441.638 0.459596 436.099 0.459596H80.7955Z" fill="#EBEBEB"/>
<path d="M834.092 519.987H478.788C472.992 519.987 468.281 515.281 468.281 509.49V10.4972C468.281 4.70626 472.992 0 478.788 0H834.092C839.888 0 844.598 4.70626 844.598 10.4972V509.49C844.598 515.281 839.888 519.987 834.092 519.987ZM478.788 0.459596C473.249 0.459596 468.741 4.96364 468.741 10.4972V509.49C468.741 515.023 473.249 519.527 478.788 519.527H834.092C839.63 519.527 844.138 515.023 844.138 509.49V10.4972C844.138 4.96364 839.63 0.459596 834.092 0.459596H478.788Z" fill="#EBEBEB"/>
<path d="M714.203 600.839H788.742L773.69 331.571H729.273L714.203 600.839Z" fill="#F0F0F0"/>
<path d="M776.804 325.045H726.148V338.943H776.804V325.045Z" fill="#EBEBEB"/>
<path d="M623.82 600.839H698.359L683.307 331.571H638.89L623.82 600.839Z" fill="#F0F0F0"/>
<path d="M686.421 325.045H635.766V338.943H686.421V325.045Z" fill="#EBEBEB"/>
<path d="M722.979 558.482H641.945V600.839H722.979V558.482Z" fill="#E6E6E6"/>
<path d="M634.51 558.482H553.477V600.839H634.51V558.482Z" fill="#E0E0E0"/>
<path d="M814.073 558.482H733.039V600.839H814.073V558.482Z" fill="#E6E6E6"/>
<path d="M332.694 477.649V458.695L285.829 477.649V458.695L238.964 477.649V458.695L192.118 477.649V458.695L135.575 481.565H135.004V349.219H105.914V600.839H116.899H135.004H379.54V495.371V481.565V458.695L332.694 477.649Z" fill="#F0F0F0"/>
<path d="M418.495 532.488H276.227V600.857H418.495V532.488Z" fill="#E6E6E6"/>
<path d="M255.981 531.072H232.411C229.044 531.072 226.32 533.885 226.32 537.341V585.213C226.32 588.154 228.308 590.618 230.957 591.279V600.839H234.84V591.482H242.255V600.839H246.137V591.482H253.552V600.839H257.435V591.279C260.084 590.599 262.071 588.154 262.071 585.213V537.341C262.071 533.885 259.348 531.072 255.981 531.072Z" fill="#E6E6E6"/>
<path d="M212.489 531.072H188.919C185.551 531.072 182.828 533.885 182.828 537.341V585.213C182.828 588.154 184.815 590.618 187.465 591.279V600.839H191.347V591.482H198.763V600.839H202.645V591.482H210.06V600.839H213.943V591.279C216.592 590.599 218.579 588.154 218.579 585.213V537.341C218.579 533.885 215.856 531.072 212.489 531.072Z" fill="#E6E6E6"/>
<path d="M168.973 531.072H145.403C142.036 531.072 139.312 533.885 139.312 537.341V585.213C139.312 588.154 141.3 590.618 143.949 591.279V600.839H147.832V591.482H155.247V600.839H159.129V591.482H166.545V600.839H170.427V591.279C173.077 590.599 175.064 588.154 175.064 585.213V537.341C175.064 533.885 172.341 531.072 168.973 531.072Z" fill="#E6E6E6"/>
<path d="M141.884 284.508C141.535 277.504 156.365 274.599 159.18 280.427C162.014 286.236 156.347 290.612 156.347 290.612C156.347 290.612 164.829 294.105 157.764 299.454C150.698 304.804 147.883 299.454 147.883 299.454C147.883 299.454 139.768 306.973 137.634 304.069C135.5 301.164 139.75 298.903 139.75 298.903C139.75 298.903 132.924 299.344 133.862 292.432C134.8 285.519 141.866 284.527 141.866 284.527L141.884 284.508Z" fill="#E0E0E0"/>
<path d="M120.409 317.103C120.225 313.61 127.64 312.158 129.057 315.062C130.473 317.967 127.64 320.154 127.64 320.154C127.64 320.154 131.872 321.901 128.339 324.567C124.806 327.232 123.389 324.567 123.389 324.567C123.389 324.567 119.323 328.335 118.274 326.883C117.207 325.431 119.341 324.291 119.341 324.291C119.341 324.291 115.919 324.511 116.397 321.055C116.876 317.599 120.409 317.103 120.409 317.103Z" fill="#E0E0E0"/>
<path d="M117.541 244.248C117.026 234.21 138.315 230.037 142.381 238.383C146.447 246.729 138.333 252.998 138.333 252.998C138.333 252.998 150.495 258.017 140.357 265.683C130.219 273.349 126.171 265.683 126.171 265.683C126.171 265.683 114.505 276.493 111.469 272.301C108.433 268.128 114.505 264.874 114.505 264.874C114.505 264.874 104.698 265.518 106.059 255.59C107.421 245.663 117.541 244.229 117.541 244.229V244.248Z" fill="#E0E0E0"/>
<path d="M669.728 264.617C669.379 257.613 684.209 254.708 687.024 260.536C689.858 266.345 684.191 270.72 684.191 270.72C684.191 270.72 692.673 274.213 685.607 279.563C678.542 284.913 675.727 279.563 675.727 279.563C675.727 279.563 667.612 287.082 665.478 284.177C663.362 281.273 667.594 279.011 667.594 279.011C667.594 279.011 660.767 279.453 661.706 272.54C662.644 265.628 669.71 264.635 669.71 264.635L669.728 264.617Z" fill="#E0E0E0"/>
<path d="M648.252 297.211C648.068 293.718 655.484 292.266 656.9 295.171C658.317 298.075 655.484 300.263 655.484 300.263C655.484 300.263 659.716 302.01 656.183 304.675C652.65 307.341 651.233 304.675 651.233 304.675C651.233 304.675 647.167 308.444 646.118 306.992C645.051 305.539 647.185 304.399 647.185 304.399C647.185 304.399 643.763 304.62 644.241 301.164C644.72 297.708 648.252 297.211 648.252 297.211Z" fill="#E0E0E0"/>
<path d="M645.385 224.356C644.87 214.319 666.177 210.146 670.225 218.492C674.273 226.838 666.177 233.107 666.177 233.107C666.177 233.107 678.339 238.126 668.201 245.792C658.062 253.458 654.014 245.792 654.014 245.792C654.014 245.792 642.349 256.602 639.313 252.428C636.277 248.255 642.349 245.001 642.349 245.001C642.349 245.001 632.542 245.645 633.903 235.717C635.246 225.809 645.385 224.356 645.385 224.356Z" fill="#E0E0E0"/>
<path d="M768.127 270.095C767.777 263.091 782.607 260.186 785.423 266.014C788.256 271.823 782.589 276.199 782.589 276.199C782.589 276.199 791.071 279.692 784.006 285.041C776.94 290.391 774.125 285.041 774.125 285.041C774.125 285.041 766.011 292.56 763.876 289.656C761.76 286.751 765.992 284.49 765.992 284.49C765.992 284.49 759.166 284.931 760.104 278.019C761.043 271.106 768.108 270.114 768.108 270.114L768.127 270.095Z" fill="#E0E0E0"/>
<path d="M746.651 302.69C746.467 299.197 753.882 297.745 755.299 300.649C756.716 303.554 753.882 305.742 753.882 305.742C753.882 305.742 758.114 307.488 754.581 310.154C751.048 312.819 749.632 310.154 749.632 310.154C749.632 310.154 745.565 313.922 744.516 312.47C743.449 311.018 745.584 309.878 745.584 309.878C745.584 309.878 742.161 310.098 742.64 306.642C743.118 303.186 746.651 302.69 746.651 302.69Z" fill="#E0E0E0"/>
<path d="M743.783 229.816C743.268 219.779 764.575 215.606 768.623 223.952C772.671 232.298 764.575 238.567 764.575 238.567C764.575 238.567 776.738 243.586 766.599 251.252C756.461 258.918 752.413 251.252 752.413 251.252C752.413 251.252 740.747 262.062 737.711 257.87C734.675 253.697 740.747 250.443 740.747 250.443C740.747 250.443 730.94 251.086 732.302 241.159C733.645 231.25 743.783 229.798 743.783 229.798V229.816Z" fill="#E0E0E0"/>
<path d="M625.419 507.927V463.659H614.139V309.731H597.837V289.876L563.024 273.165V253.127H558.203V309.731H551.451V463.659H544.716V382.733H526.39V341.02H521.275V463.659H507.364V416.982H498.201V405.069H476.986V364.349H465.357V335.56H451.079V293.608H445.982V335.56H431.703V364.349H420.093V405.069H398.878V416.982H389.715V463.659H378.84V405.069H357.625V278.956H350.872V265.058H305.553V278.956H295.911V370.306H257.327V379.258H242.864V386.208H257.327V421.946H233.848V422.185H196.625V600.839H633.128V507.927H625.419Z" fill="#E6E6E6"/>
<path d="M210.465 430.991H205V436.616H210.465V430.991Z" fill="#F0F0F0"/>
<path d="M210.465 440.422H205V446.047H210.465V440.422Z" fill="#F0F0F0"/>
<path d="M308.168 283.865H302.703V289.49H308.168V283.865Z" fill="#F0F0F0"/>
<path d="M308.168 293.296H302.703V298.921H308.168V293.296Z" fill="#F0F0F0"/>
<path d="M308.168 302.727H302.703V308.352H308.168V302.727Z" fill="#F0F0F0"/>
<path d="M308.168 312.158H302.703V317.783H308.168V312.158Z" fill="#F0F0F0"/>
<path d="M308.168 321.588H302.703V327.214H308.168V321.588Z" fill="#F0F0F0"/>
<path d="M308.168 331.038H302.703V336.663H308.168V331.038Z" fill="#F0F0F0"/>
<path d="M308.168 340.469H302.703V346.094H308.168V340.469Z" fill="#F0F0F0"/>
<path d="M308.168 349.9H302.703V355.525H308.168V349.9Z" fill="#F0F0F0"/>
<path d="M308.168 378.192H302.703V383.818H308.168V378.192Z" fill="#F0F0F0"/>
<path d="M308.168 387.642H302.703V393.267H308.168V387.642Z" fill="#F0F0F0"/>
<path d="M316.855 283.865H311.391V289.49H316.855V283.865Z" fill="#F0F0F0"/>
<path d="M316.855 293.296H311.391V298.921H316.855V293.296Z" fill="#F0F0F0"/>
<path d="M316.855 302.727H311.391V308.352H316.855V302.727Z" fill="#F0F0F0"/>
<path d="M316.855 312.158H311.391V317.783H316.855V312.158Z" fill="#F0F0F0"/>
<path d="M316.855 321.588H311.391V327.214H316.855V321.588Z" fill="#F0F0F0"/>
<path d="M316.855 331.038H311.391V336.663H316.855V331.038Z" fill="#F0F0F0"/>
<path d="M316.855 340.469H311.391V346.094H316.855V340.469Z" fill="#F0F0F0"/>
<path d="M316.855 349.9H311.391V355.525H316.855V349.9Z" fill="#F0F0F0"/>
<path d="M316.855 387.642H311.391V393.267H316.855V387.642Z" fill="#F0F0F0"/>
<path d="M325.535 283.865H320.07V289.49H325.535V283.865Z" fill="#F0F0F0"/>
<path d="M325.535 293.296H320.07V298.921H325.535V293.296Z" fill="#F0F0F0"/>
<path d="M325.535 302.727H320.07V308.352H325.535V302.727Z" fill="#F0F0F0"/>
<path d="M325.535 312.158H320.07V317.783H325.535V312.158Z" fill="#F0F0F0"/>
<path d="M325.535 321.588H320.07V327.214H325.535V321.588Z" fill="#F0F0F0"/>
<path d="M325.535 331.038H320.07V336.663H325.535V331.038Z" fill="#F0F0F0"/>
<path d="M325.535 340.469H320.07V346.094H325.535V340.469Z" fill="#F0F0F0"/>
<path d="M325.535 349.9H320.07V355.525H325.535V349.9Z" fill="#F0F0F0"/>
<path d="M334.223 283.865H328.758V289.49H334.223V283.865Z" fill="#F0F0F0"/>
<path d="M334.223 293.296H328.758V298.921H334.223V293.296Z" fill="#F0F0F0"/>
<path d="M334.223 302.727H328.758V308.352H334.223V302.727Z" fill="#F0F0F0"/>
<path d="M334.223 312.158H328.758V317.783H334.223V312.158Z" fill="#F0F0F0"/>
<path d="M334.223 321.588H328.758V327.214H334.223V321.588Z" fill="#F0F0F0"/>
<path d="M334.223 331.038H328.758V336.663H334.223V331.038Z" fill="#F0F0F0"/>
<path d="M334.223 349.9H328.758V355.525H334.223V349.9Z" fill="#F0F0F0"/>
<path d="M334.223 359.33H328.758V364.956H334.223V359.33Z" fill="#F0F0F0"/>
<path d="M334.223 387.642H328.758V393.267H334.223V387.642Z" fill="#F0F0F0"/>
<path d="M334.223 397.072H328.758V402.698H334.223V397.072Z" fill="#F0F0F0"/>
<path d="M334.223 406.503H328.758V412.129H334.223V406.503Z" fill="#F0F0F0"/>
<path d="M334.223 415.934H328.758V421.56H334.223V415.934Z" fill="#F0F0F0"/>
<path d="M334.223 425.365H328.758V430.991H334.223V425.365Z" fill="#F0F0F0"/>
<path d="M334.223 434.796H328.758V440.422H334.223V434.796Z" fill="#F0F0F0"/>
<path d="M334.223 444.245H328.758V449.871H334.223V444.245Z" fill="#F0F0F0"/>
<path d="M342.887 283.865H337.422V289.49H342.887V283.865Z" fill="#F0F0F0"/>
<path d="M342.887 293.296H337.422V298.921H342.887V293.296Z" fill="#F0F0F0"/>
<path d="M342.887 302.727H337.422V308.352H342.887V302.727Z" fill="#F0F0F0"/>
<path d="M342.887 312.158H337.422V317.783H342.887V312.158Z" fill="#F0F0F0"/>
<path d="M342.887 321.588H337.422V327.214H342.887V321.588Z" fill="#F0F0F0"/>
<path d="M342.887 331.038H337.422V336.663H342.887V331.038Z" fill="#F0F0F0"/>
<path d="M342.887 359.33H337.422V364.956H342.887V359.33Z" fill="#F0F0F0"/>
<path d="M342.887 368.761H337.422V374.387H342.887V368.761Z" fill="#F0F0F0"/>
<path d="M342.887 378.192H337.422V383.818H342.887V378.192Z" fill="#F0F0F0"/>
<path d="M342.887 387.642H337.422V393.267H342.887V387.642Z" fill="#F0F0F0"/>
<path d="M342.887 397.072H337.422V402.698H342.887V397.072Z" fill="#F0F0F0"/>
<path d="M342.887 406.503H337.422V412.129H342.887V406.503Z" fill="#F0F0F0"/>
<path d="M342.887 415.934H337.422V421.56H342.887V415.934Z" fill="#F0F0F0"/>
<path d="M342.887 425.365H337.422V430.991H342.887V425.365Z" fill="#F0F0F0"/>
<path d="M342.887 434.796H337.422V440.422H342.887V434.796Z" fill="#F0F0F0"/>
<path d="M342.887 444.245H337.422V449.871H342.887V444.245Z" fill="#F0F0F0"/>
<path d="M342.887 453.676H337.422V459.302H342.887V453.676Z" fill="#F0F0F0"/>
<path d="M342.887 472.538H337.422V478.164H342.887V472.538Z" fill="#F0F0F0"/>
<path d="M351.574 283.865H346.109V289.49H351.574V283.865Z" fill="#F0F0F0"/>
<path d="M351.574 293.296H346.109V298.921H351.574V293.296Z" fill="#F0F0F0"/>
<path d="M351.574 302.727H346.109V308.352H351.574V302.727Z" fill="#F0F0F0"/>
<path d="M351.574 312.158H346.109V317.783H351.574V312.158Z" fill="#F0F0F0"/>
<path d="M351.574 321.588H346.109V327.214H351.574V321.588Z" fill="#F0F0F0"/>
<path d="M351.574 331.038H346.109V336.663H351.574V331.038Z" fill="#F0F0F0"/>
<path d="M351.574 359.33H346.109V364.956H351.574V359.33Z" fill="#F0F0F0"/>
<path d="M351.574 368.761H346.109V374.387H351.574V368.761Z" fill="#F0F0F0"/>
<path d="M351.574 378.192H346.109V383.818H351.574V378.192Z" fill="#F0F0F0"/>
<path d="M351.574 387.642H346.109V393.267H351.574V387.642Z" fill="#F0F0F0"/>
<path d="M351.574 415.934H346.109V421.56H351.574V415.934Z" fill="#F0F0F0"/>
<path d="M351.574 425.365H346.109V430.991H351.574V425.365Z" fill="#F0F0F0"/>
<path d="M351.574 434.796H346.109V440.422H351.574V434.796Z" fill="#F0F0F0"/>
<path d="M351.574 444.245H346.109V449.871H351.574V444.245Z" fill="#F0F0F0"/>
<path d="M351.574 453.676H346.109V459.302H351.574V453.676Z" fill="#F0F0F0"/>
<path d="M351.574 472.538H346.109V478.164H351.574V472.538Z" fill="#F0F0F0"/>
<path d="M351.574 481.969H346.109V487.594H351.574V481.969Z" fill="#F0F0F0"/>
<path d="M430.324 371.574H424.859V377.2H430.324V371.574Z" fill="#F0F0F0"/>
<path d="M430.324 381.005H424.859V386.63H430.324V381.005Z" fill="#F0F0F0"/>
<path d="M430.324 390.454H424.859V396.08H430.324V390.454Z" fill="#F0F0F0"/>
<path d="M430.324 399.885H424.859V405.511H430.324V399.885Z" fill="#F0F0F0"/>
<path d="M430.324 409.316H424.859V414.942H430.324V409.316Z" fill="#F0F0F0"/>
<path d="M430.324 418.747H424.859V424.372H430.324V418.747Z" fill="#F0F0F0"/>
<path d="M430.324 428.178H424.859V433.803H430.324V428.178Z" fill="#F0F0F0"/>
<path d="M430.324 456.489H424.859V462.114H430.324V456.489Z" fill="#F0F0F0"/>
<path d="M430.324 465.92H424.859V471.545H430.324V465.92Z" fill="#F0F0F0"/>
<path d="M430.324 475.351H424.859V480.976H430.324V475.351Z" fill="#F0F0F0"/>
<path d="M439.012 371.574H433.547V377.2H439.012V371.574Z" fill="#F0F0F0"/>
<path d="M439.012 381.005H433.547V386.63H439.012V381.005Z" fill="#F0F0F0"/>
<path d="M439.012 390.454H433.547V396.08H439.012V390.454Z" fill="#F0F0F0"/>
<path d="M439.012 399.885H433.547V405.511H439.012V399.885Z" fill="#F0F0F0"/>
<path d="M439.012 409.316H433.547V414.942H439.012V409.316Z" fill="#F0F0F0"/>
<path d="M439.012 418.747H433.547V424.372H439.012V418.747Z" fill="#F0F0F0"/>
<path d="M439.012 428.178H433.547V433.803H439.012V428.178Z" fill="#F0F0F0"/>
<path d="M447.676 371.574H442.211V377.2H447.676V371.574Z" fill="#F0F0F0"/>
<path d="M447.676 381.005H442.211V386.63H447.676V381.005Z" fill="#F0F0F0"/>
<path d="M447.676 390.454H442.211V396.08H447.676V390.454Z" fill="#F0F0F0"/>
<path d="M447.676 399.885H442.211V405.511H447.676V399.885Z" fill="#F0F0F0"/>
<path d="M447.676 409.316H442.211V414.942H447.676V409.316Z" fill="#F0F0F0"/>
<path d="M447.676 418.747H442.211V424.372H447.676V418.747Z" fill="#F0F0F0"/>
<path d="M447.676 428.178H442.211V433.803H447.676V428.178Z" fill="#F0F0F0"/>
<path d="M456.363 371.574H450.898V377.2H456.363V371.574Z" fill="#F0F0F0"/>
<path d="M456.363 381.005H450.898V386.63H456.363V381.005Z" fill="#F0F0F0"/>
<path d="M456.363 390.454H450.898V396.08H456.363V390.454Z" fill="#F0F0F0"/>
<path d="M456.363 399.885H450.898V405.511H456.363V399.885Z" fill="#F0F0F0"/>
<path d="M456.363 409.316H450.898V414.942H456.363V409.316Z" fill="#F0F0F0"/>
<path d="M456.363 418.747H450.898V424.372H456.363V418.747Z" fill="#F0F0F0"/>
<path d="M456.363 428.178H450.898V433.803H456.363V428.178Z" fill="#F0F0F0"/>
<path d="M456.363 437.609H450.898V443.234H456.363V437.609Z" fill="#F0F0F0"/>
<path d="M456.363 447.058H450.898V452.684H456.363V447.058Z" fill="#F0F0F0"/>
<path d="M456.363 456.489H450.898V462.114H456.363V456.489Z" fill="#F0F0F0"/>
<path d="M456.363 465.92H450.898V471.545H456.363V465.92Z" fill="#F0F0F0"/>
<path d="M465.051 371.574H459.586V377.2H465.051V371.574Z" fill="#F0F0F0"/>
<path d="M465.051 381.005H459.586V386.63H465.051V381.005Z" fill="#F0F0F0"/>
<path d="M465.051 390.454H459.586V396.08H465.051V390.454Z" fill="#F0F0F0"/>
<path d="M465.051 399.885H459.586V405.511H465.051V399.885Z" fill="#F0F0F0"/>
<path d="M465.051 409.316H459.586V414.942H465.051V409.316Z" fill="#F0F0F0"/>
<path d="M465.051 418.747H459.586V424.372H465.051V418.747Z" fill="#F0F0F0"/>
<path d="M465.051 428.178H459.586V433.803H465.051V428.178Z" fill="#F0F0F0"/>
<path d="M465.051 437.609H459.586V443.234H465.051V437.609Z" fill="#F0F0F0"/>
<path d="M465.051 447.058H459.586V452.684H465.051V447.058Z" fill="#F0F0F0"/>
<path d="M465.051 456.489H459.586V462.114H465.051V456.489Z" fill="#F0F0F0"/>
<path d="M465.051 465.92H459.586V471.545H465.051V465.92Z" fill="#F0F0F0"/>
<path d="M465.051 475.351H459.586V480.976H465.051V475.351Z" fill="#F0F0F0"/>
<path d="M465.051 503.662H459.586V509.287H465.051V503.662Z" fill="#F0F0F0"/>
<path d="M465.051 513.093H459.586V518.718H465.051V513.093Z" fill="#F0F0F0"/>
<path d="M473.73 371.574H468.266V377.2H473.73V371.574Z" fill="#F0F0F0"/>
<path d="M473.73 381.005H468.266V386.63H473.73V381.005Z" fill="#F0F0F0"/>
<path d="M473.73 390.454H468.266V396.08H473.73V390.454Z" fill="#F0F0F0"/>
<path d="M473.73 418.747H468.266V424.372H473.73V418.747Z" fill="#F0F0F0"/>
<path d="M473.73 428.178H468.266V433.803H473.73V428.178Z" fill="#F0F0F0"/>
<path d="M473.73 437.609H468.266V443.234H473.73V437.609Z" fill="#F0F0F0"/>
<path d="M473.73 447.058H468.266V452.684H473.73V447.058Z" fill="#F0F0F0"/>
<path d="M473.73 456.489H468.266V462.114H473.73V456.489Z" fill="#F0F0F0"/>
<path d="M473.73 465.92H468.266V471.545H473.73V465.92Z" fill="#F0F0F0"/>
<path d="M473.73 475.351H468.266V480.976H473.73V475.351Z" fill="#F0F0F0"/>
<path d="M473.73 503.662H468.266V509.287H473.73V503.662Z" fill="#F0F0F0"/>
<path d="M473.73 513.093H468.266V518.718H473.73V513.093Z" fill="#F0F0F0"/>
<path d="M473.73 522.524H468.266V528.149H473.73V522.524Z" fill="#F0F0F0"/>
<path d="M564.684 314.97H559.219V320.596H564.684V314.97Z" fill="#F0F0F0"/>
<path d="M564.684 324.401H559.219V330.027H564.684V324.401Z" fill="#F0F0F0"/>
<path d="M564.684 333.85H559.219V339.476H564.684V333.85Z" fill="#F0F0F0"/>
<path d="M564.684 343.281H559.219V348.907H564.684V343.281Z" fill="#F0F0F0"/>
<path d="M564.684 352.712H559.219V358.338H564.684V352.712Z" fill="#F0F0F0"/>
<path d="M564.684 362.143H559.219V367.769H564.684V362.143Z" fill="#F0F0F0"/>
<path d="M564.684 371.574H559.219V377.2H564.684V371.574Z" fill="#F0F0F0"/>
<path d="M564.684 381.005H559.219V386.63H564.684V381.005Z" fill="#F0F0F0"/>
<path d="M564.684 390.454H559.219V396.08H564.684V390.454Z" fill="#F0F0F0"/>
<path d="M564.684 399.885H559.219V405.511H564.684V399.885Z" fill="#F0F0F0"/>
<path d="M564.684 409.316H559.219V414.942H564.684V409.316Z" fill="#F0F0F0"/>
<path d="M564.684 418.747H559.219V424.372H564.684V418.747Z" fill="#F0F0F0"/>
<path d="M564.684 428.178H559.219V433.803H564.684V428.178Z" fill="#F0F0F0"/>
<path d="M564.684 437.609H559.219V443.234H564.684V437.609Z" fill="#F0F0F0"/>
<path d="M564.684 447.058H559.219V452.684H564.684V447.058Z" fill="#F0F0F0"/>
<path d="M564.684 456.489H559.219V462.114H564.684V456.489Z" fill="#F0F0F0"/>
<path d="M564.684 465.92H559.219V471.545H564.684V465.92Z" fill="#F0F0F0"/>
<path d="M564.684 475.351H559.219V480.976H564.684V475.351Z" fill="#F0F0F0"/>
<path d="M564.684 484.782H559.219V490.407H564.684V484.782Z" fill="#F0F0F0"/>
<path d="M564.684 494.213H559.219V499.838H564.684V494.213Z" fill="#F0F0F0"/>
<path d="M564.684 503.662H559.219V509.287H564.684V503.662Z" fill="#F0F0F0"/>
<path d="M564.684 513.093H559.219V518.718H564.684V513.093Z" fill="#F0F0F0"/>
<path d="M564.684 522.524H559.219V528.149H564.684V522.524Z" fill="#F0F0F0"/>
<path d="M573.371 314.97H567.906V320.596H573.371V314.97Z" fill="#F0F0F0"/>
<path d="M573.371 324.401H567.906V330.027H573.371V324.401Z" fill="#F0F0F0"/>
<path d="M573.371 333.85H567.906V339.476H573.371V333.85Z" fill="#F0F0F0"/>
<path d="M573.371 343.281H567.906V348.907H573.371V343.281Z" fill="#F0F0F0"/>
<path d="M573.371 352.712H567.906V358.338H573.371V352.712Z" fill="#F0F0F0"/>
<path d="M573.371 362.143H567.906V367.769H573.371V362.143Z" fill="#F0F0F0"/>
<path d="M573.371 371.574H567.906V377.2H573.371V371.574Z" fill="#F0F0F0"/>
<path d="M573.371 381.005H567.906V386.63H573.371V381.005Z" fill="#F0F0F0"/>
<path d="M573.371 390.454H567.906V396.08H573.371V390.454Z" fill="#F0F0F0"/>
<path d="M573.371 399.885H567.906V405.511H573.371V399.885Z" fill="#F0F0F0"/>
<path d="M573.371 409.316H567.906V414.942H573.371V409.316Z" fill="#F0F0F0"/>
<path d="M573.371 418.747H567.906V424.372H573.371V418.747Z" fill="#F0F0F0"/>
<path d="M573.371 428.178H567.906V433.803H573.371V428.178Z" fill="#F0F0F0"/>
<path d="M573.371 437.609H567.906V443.234H573.371V437.609Z" fill="#F0F0F0"/>
<path d="M573.371 447.058H567.906V452.684H573.371V447.058Z" fill="#F0F0F0"/>
<path d="M573.371 456.489H567.906V462.114H573.371V456.489Z" fill="#F0F0F0"/>
<path d="M573.371 465.92H567.906V471.545H573.371V465.92Z" fill="#F0F0F0"/>
<path d="M573.371 475.351H567.906V480.976H573.371V475.351Z" fill="#F0F0F0"/>
<path d="M573.371 484.782H567.906V490.407H573.371V484.782Z" fill="#F0F0F0"/>
<path d="M582.051 314.97H576.586V320.596H582.051V314.97Z" fill="#F0F0F0"/>
<path d="M582.051 324.401H576.586V330.027H582.051V324.401Z" fill="#F0F0F0"/>
<path d="M582.051 333.85H576.586V339.476H582.051V333.85Z" fill="#F0F0F0"/>
<path d="M582.051 343.281H576.586V348.907H582.051V343.281Z" fill="#F0F0F0"/>
<path d="M582.051 352.712H576.586V358.338H582.051V352.712Z" fill="#F0F0F0"/>
<path d="M582.051 362.143H576.586V367.769H582.051V362.143Z" fill="#F0F0F0"/>
<path d="M582.051 371.574H576.586V377.2H582.051V371.574Z" fill="#F0F0F0"/>
<path d="M582.051 381.005H576.586V386.63H582.051V381.005Z" fill="#F0F0F0"/>
<path d="M582.051 390.454H576.586V396.08H582.051V390.454Z" fill="#F0F0F0"/>
<path d="M582.051 399.885H576.586V405.511H582.051V399.885Z" fill="#F0F0F0"/>
<path d="M582.051 409.316H576.586V414.942H582.051V409.316Z" fill="#F0F0F0"/>
<path d="M582.051 418.747H576.586V424.372H582.051V418.747Z" fill="#F0F0F0"/>
<path d="M582.051 428.178H576.586V433.803H582.051V428.178Z" fill="#F0F0F0"/>
<path d="M582.051 437.609H576.586V443.234H582.051V437.609Z" fill="#F0F0F0"/>
<path d="M582.051 447.058H576.586V452.684H582.051V447.058Z" fill="#F0F0F0"/>
<path d="M582.051 456.489H576.586V462.114H582.051V456.489Z" fill="#F0F0F0"/>
<path d="M582.051 465.92H576.586V471.545H582.051V465.92Z" fill="#F0F0F0"/>
<path d="M582.051 475.351H576.586V480.976H582.051V475.351Z" fill="#F0F0F0"/>
<path d="M582.051 484.782H576.586V490.407H582.051V484.782Z" fill="#F0F0F0"/>
<path d="M590.738 314.97H585.273V320.596H590.738V314.97Z" fill="#F0F0F0"/>
<path d="M590.738 324.401H585.273V330.027H590.738V324.401Z" fill="#F0F0F0"/>
<path d="M590.738 333.85H585.273V339.476H590.738V333.85Z" fill="#F0F0F0"/>
<path d="M590.738 343.281H585.273V348.907H590.738V343.281Z" fill="#F0F0F0"/>
<path d="M590.738 352.712H585.273V358.338H590.738V352.712Z" fill="#F0F0F0"/>
<path d="M590.738 362.143H585.273V367.769H590.738V362.143Z" fill="#F0F0F0"/>
<path d="M590.738 371.574H585.273V377.2H590.738V371.574Z" fill="#F0F0F0"/>
<path d="M590.738 381.005H585.273V386.63H590.738V381.005Z" fill="#F0F0F0"/>
<path d="M590.738 390.454H585.273V396.08H590.738V390.454Z" fill="#F0F0F0"/>
<path d="M590.738 399.885H585.273V405.511H590.738V399.885Z" fill="#F0F0F0"/>
<path d="M590.738 409.316H585.273V414.942H590.738V409.316Z" fill="#F0F0F0"/>
<path d="M590.738 418.747H585.273V424.372H590.738V418.747Z" fill="#F0F0F0"/>
<path d="M590.738 428.178H585.273V433.803H590.738V428.178Z" fill="#F0F0F0"/>
<path d="M590.738 437.609H585.273V443.234H590.738V437.609Z" fill="#F0F0F0"/>
<path d="M590.738 447.058H585.273V452.684H590.738V447.058Z" fill="#F0F0F0"/>
<path d="M599.402 314.97H593.938V320.596H599.402V314.97Z" fill="#F0F0F0"/>
<path d="M599.402 324.401H593.938V330.027H599.402V324.401Z" fill="#F0F0F0"/>
<path d="M599.402 333.85H593.938V339.476H599.402V333.85Z" fill="#F0F0F0"/>
<path d="M599.402 343.281H593.938V348.907H599.402V343.281Z" fill="#F0F0F0"/>
<path d="M599.402 352.712H593.938V358.338H599.402V352.712Z" fill="#F0F0F0"/>
<path d="M599.402 362.143H593.938V367.769H599.402V362.143Z" fill="#F0F0F0"/>
<path d="M599.402 371.574H593.938V377.2H599.402V371.574Z" fill="#F0F0F0"/>
<path d="M599.402 381.005H593.938V386.63H599.402V381.005Z" fill="#F0F0F0"/>
<path d="M599.402 390.454H593.938V396.08H599.402V390.454Z" fill="#F0F0F0"/>
<path d="M599.402 399.885H593.938V405.511H599.402V399.885Z" fill="#F0F0F0"/>
<path d="M599.402 409.316H593.938V414.942H599.402V409.316Z" fill="#F0F0F0"/>
<path d="M599.402 418.747H593.938V424.372H599.402V418.747Z" fill="#F0F0F0"/>
<path d="M599.402 428.178H593.938V433.803H599.402V428.178Z" fill="#F0F0F0"/>
<path d="M608.09 314.97H602.625V320.596H608.09V314.97Z" fill="#F0F0F0"/>
<path d="M608.09 324.401H602.625V330.027H608.09V324.401Z" fill="#F0F0F0"/>
<path d="M608.09 333.85H602.625V339.476H608.09V333.85Z" fill="#F0F0F0"/>
<path d="M608.09 343.281H602.625V348.907H608.09V343.281Z" fill="#F0F0F0"/>
<path d="M608.09 352.712H602.625V358.338H608.09V352.712Z" fill="#F0F0F0"/>
<path d="M608.09 362.143H602.625V367.769H608.09V362.143Z" fill="#F0F0F0"/>
<path d="M608.09 371.574H602.625V377.2H608.09V371.574Z" fill="#F0F0F0"/>
<path d="M608.09 381.005H602.625V386.63H608.09V381.005Z" fill="#F0F0F0"/>
<path d="M608.09 390.454H602.625V396.08H608.09V390.454Z" fill="#F0F0F0"/>
<path d="M608.09 399.885H602.625V405.511H608.09V399.885Z" fill="#F0F0F0"/>
<path d="M608.09 409.316H602.625V414.942H608.09V409.316Z" fill="#F0F0F0"/>
<path d="M608.09 418.747H602.625V424.372H608.09V418.747Z" fill="#F0F0F0"/>
<path d="M270.246 378.192H264.781V383.818H270.246V378.192Z" fill="#F0F0F0"/>
<path d="M270.246 387.642H264.781V393.267H270.246V387.642Z" fill="#F0F0F0"/>
<path d="M270.246 397.072H264.781V402.698H270.246V397.072Z" fill="#F0F0F0"/>
<path d="M270.246 406.503H264.781V412.129H270.246V406.503Z" fill="#F0F0F0"/>
<path d="M270.246 415.934H264.781V421.56H270.246V415.934Z" fill="#F0F0F0"/>
<path d="M270.246 425.365H264.781V430.991H270.246V425.365Z" fill="#F0F0F0"/>
<path d="M270.246 434.796H264.781V440.422H270.246V434.796Z" fill="#F0F0F0"/>
<path d="M270.246 444.245H264.781V449.871H270.246V444.245Z" fill="#F0F0F0"/>
<path d="M270.246 453.676H264.781V459.302H270.246V453.676Z" fill="#F0F0F0"/>
<path d="M270.246 463.107H264.781V468.733H270.246V463.107Z" fill="#F0F0F0"/>
<path d="M270.246 472.538H264.781V478.164H270.246V472.538Z" fill="#F0F0F0"/>
<path d="M270.246 481.969H264.781V487.594H270.246V481.969Z" fill="#F0F0F0"/>
<path d="M270.246 491.4H264.781V497.025H270.246V491.4Z" fill="#F0F0F0"/>
<path d="M270.246 510.28H264.781V515.906H270.246V510.28Z" fill="#F0F0F0"/>
<path d="M270.246 519.711H264.781V525.337H270.246V519.711Z" fill="#F0F0F0"/>
<path d="M270.246 529.142H264.781V534.767H270.246V529.142Z" fill="#F0F0F0"/>
<path d="M270.246 538.573H264.781V544.198H270.246V538.573Z" fill="#F0F0F0"/>
<path d="M270.246 557.453H264.781V563.078H270.246V557.453Z" fill="#F0F0F0"/>
<path d="M270.246 566.884H264.781V572.509H270.246V566.884Z" fill="#F0F0F0"/>
<path d="M270.246 576.315H264.781V581.94H270.246V576.315Z" fill="#F0F0F0"/>
<path d="M278.934 378.192H273.469V383.818H278.934V378.192Z" fill="#F0F0F0"/>
<path d="M278.934 387.642H273.469V393.267H278.934V387.642Z" fill="#F0F0F0"/>
<path d="M278.934 397.072H273.469V402.698H278.934V397.072Z" fill="#F0F0F0"/>
<path d="M278.934 406.503H273.469V412.129H278.934V406.503Z" fill="#F0F0F0"/>
<path d="M278.934 415.934H273.469V421.56H278.934V415.934Z" fill="#F0F0F0"/>
<path d="M278.934 425.365H273.469V430.991H278.934V425.365Z" fill="#F0F0F0"/>
<path d="M278.934 434.796H273.469V440.422H278.934V434.796Z" fill="#F0F0F0"/>
<path d="M278.934 444.245H273.469V449.871H278.934V444.245Z" fill="#F0F0F0"/>
<path d="M278.934 453.676H273.469V459.302H278.934V453.676Z" fill="#F0F0F0"/>
<path d="M278.934 463.107H273.469V468.733H278.934V463.107Z" fill="#F0F0F0"/>
<path d="M278.934 472.538H273.469V478.164H278.934V472.538Z" fill="#F0F0F0"/>
<path d="M278.934 481.969H273.469V487.594H278.934V481.969Z" fill="#F0F0F0"/>
<path d="M278.934 491.4H273.469V497.025H278.934V491.4Z" fill="#F0F0F0"/>
<path d="M278.934 519.711H273.469V525.337H278.934V519.711Z" fill="#F0F0F0"/>
<path d="M278.934 529.142H273.469V534.767H278.934V529.142Z" fill="#F0F0F0"/>
<path d="M278.934 548.004H273.469V553.629H278.934V548.004Z" fill="#F0F0F0"/>
<path d="M278.934 557.453H273.469V563.078H278.934V557.453Z" fill="#F0F0F0"/>
<path d="M278.934 566.884H273.469V572.509H278.934V566.884Z" fill="#F0F0F0"/>
<path d="M278.934 576.315H273.469V581.94H278.934V576.315Z" fill="#F0F0F0"/>
<path d="M287.598 378.192H282.133V383.818H287.598V378.192Z" fill="#F0F0F0"/>
<path d="M287.598 387.642H282.133V393.267H287.598V387.642Z" fill="#F0F0F0"/>
<path d="M287.598 397.072H282.133V402.698H287.598V397.072Z" fill="#F0F0F0"/>
<path d="M287.598 406.503H282.133V412.129H287.598V406.503Z" fill="#F0F0F0"/>
<path d="M287.598 415.934H282.133V421.56H287.598V415.934Z" fill="#F0F0F0"/>
<path d="M287.598 425.365H282.133V430.991H287.598V425.365Z" fill="#F0F0F0"/>
<path d="M287.598 434.796H282.133V440.422H287.598V434.796Z" fill="#F0F0F0"/>
<path d="M287.598 444.245H282.133V449.871H287.598V444.245Z" fill="#F0F0F0"/>
<path d="M287.598 453.676H282.133V459.302H287.598V453.676Z" fill="#F0F0F0"/>
<path d="M287.598 463.107H282.133V468.733H287.598V463.107Z" fill="#F0F0F0"/>
<path d="M287.598 472.538H282.133V478.164H287.598V472.538Z" fill="#F0F0F0"/>
<path d="M287.598 481.969H282.133V487.594H287.598V481.969Z" fill="#F0F0F0"/>
<path d="M287.598 491.4H282.133V497.025H287.598V491.4Z" fill="#F0F0F0"/>
<path d="M287.598 500.849H282.133V506.475H287.598V500.849Z" fill="#F0F0F0"/>
<path d="M287.598 519.711H282.133V525.337H287.598V519.711Z" fill="#F0F0F0"/>
<path d="M287.598 538.573H282.133V544.198H287.598V538.573Z" fill="#F0F0F0"/>
<path d="M287.598 548.004H282.133V553.629H287.598V548.004Z" fill="#F0F0F0"/>
<path d="M287.598 557.453H282.133V563.078H287.598V557.453Z" fill="#F0F0F0"/>
<path d="M287.598 566.884H282.133V572.509H287.598V566.884Z" fill="#F0F0F0"/>
<path d="M287.598 576.315H282.133V581.94H287.598V576.315Z" fill="#F0F0F0"/>
<path d="M234.879 431.983H229.414V437.609H234.879V431.983Z" fill="#F0F0F0"/>
<path d="M234.879 441.433H229.414V447.058H234.879V441.433Z" fill="#F0F0F0"/>
<path d="M234.879 450.864H229.414V456.489H234.879V450.864Z" fill="#F0F0F0"/>
<path d="M234.879 460.294H229.414V465.92H234.879V460.294Z" fill="#F0F0F0"/>
<path d="M234.879 469.725H229.414V475.351H234.879V469.725Z" fill="#F0F0F0"/>
<path d="M234.879 479.156H229.414V484.782H234.879V479.156Z" fill="#F0F0F0"/>
<path d="M234.879 507.467H229.414V513.093H234.879V507.467Z" fill="#F0F0F0"/>
<path d="M234.879 516.898H229.414V522.524H234.879V516.898Z" fill="#F0F0F0"/>
<path d="M234.879 526.329H229.414V531.955H234.879V526.329Z" fill="#F0F0F0"/>
<path d="M234.879 535.76H229.414V541.386H234.879V535.76Z" fill="#F0F0F0"/>
<path d="M234.879 545.191H229.414V550.816H234.879V545.191Z" fill="#F0F0F0"/>
<path d="M234.879 554.622H229.414V560.247H234.879V554.622Z" fill="#F0F0F0"/>
<path d="M234.879 564.071H229.414V569.697H234.879V564.071Z" fill="#F0F0F0"/>
<path d="M243.566 431.983H238.102V437.609H243.566V431.983Z" fill="#F0F0F0"/>
<path d="M243.566 441.433H238.102V447.058H243.566V441.433Z" fill="#F0F0F0"/>
<path d="M243.566 450.864H238.102V456.489H243.566V450.864Z" fill="#F0F0F0"/>
<path d="M243.566 460.294H238.102V465.92H243.566V460.294Z" fill="#F0F0F0"/>
<path d="M243.566 469.725H238.102V475.351H243.566V469.725Z" fill="#F0F0F0"/>
<path d="M243.566 479.156H238.102V484.782H243.566V479.156Z" fill="#F0F0F0"/>
<path d="M243.566 507.467H238.102V513.093H243.566V507.467Z" fill="#F0F0F0"/>
<path d="M243.566 516.898H238.102V522.524H243.566V516.898Z" fill="#F0F0F0"/>
<path d="M243.566 526.329H238.102V531.955H243.566V526.329Z" fill="#F0F0F0"/>
<path d="M243.566 535.76H238.102V541.386H243.566V535.76Z" fill="#F0F0F0"/>
<path d="M243.566 545.191H238.102V550.816H243.566V545.191Z" fill="#F0F0F0"/>
<path d="M243.566 554.622H238.102V560.247H243.566V554.622Z" fill="#F0F0F0"/>
<path d="M243.566 573.502H238.102V579.128H243.566V573.502Z" fill="#F0F0F0"/>
<path d="M531.91 390.454H526.445V396.08H531.91V390.454Z" fill="#F0F0F0"/>
<path d="M531.91 399.885H526.445V405.511H531.91V399.885Z" fill="#F0F0F0"/>
<path d="M531.91 409.316H526.445V414.942H531.91V409.316Z" fill="#F0F0F0"/>
<path d="M531.91 418.747H526.445V424.372H531.91V418.747Z" fill="#F0F0F0"/>
<path d="M531.91 428.178H526.445V433.803H531.91V428.178Z" fill="#F0F0F0"/>
<path d="M531.91 437.609H526.445V443.234H531.91V437.609Z" fill="#F0F0F0"/>
<path d="M531.91 447.058H526.445V452.684H531.91V447.058Z" fill="#F0F0F0"/>
<path d="M531.91 456.489H526.445V462.114H531.91V456.489Z" fill="#F0F0F0"/>
<path d="M531.91 465.92H526.445V471.545H531.91V465.92Z" fill="#F0F0F0"/>
<path d="M531.91 475.351H526.445V480.976H531.91V475.351Z" fill="#F0F0F0"/>
<path d="M531.91 484.782H526.445V490.407H531.91V484.782Z" fill="#F0F0F0"/>
<path d="M531.91 503.662H526.445V509.287H531.91V503.662Z" fill="#F0F0F0"/>
<path d="M531.91 513.093H526.445V518.718H531.91V513.093Z" fill="#F0F0F0"/>
<path d="M531.91 522.524H526.445V528.149H531.91V522.524Z" fill="#F0F0F0"/>
<path d="M531.91 531.955H526.445V537.58H531.91V531.955Z" fill="#F0F0F0"/>
<path d="M531.91 541.385H526.445V547.011H531.91V541.385Z" fill="#F0F0F0"/>
<path d="M531.91 550.816H526.445V556.442H531.91V550.816Z" fill="#F0F0F0"/>
<path d="M531.91 560.266H526.445V565.891H531.91V560.266Z" fill="#F0F0F0"/>
<path d="M531.91 569.697H526.445V575.322H531.91V569.697Z" fill="#F0F0F0"/>
<path d="M540.582 390.454H535.117V396.08H540.582V390.454Z" fill="#F0F0F0"/>
<path d="M540.582 399.885H535.117V405.511H540.582V399.885Z" fill="#F0F0F0"/>
<path d="M540.582 409.316H535.117V414.942H540.582V409.316Z" fill="#F0F0F0"/>
<path d="M540.582 418.747H535.117V424.372H540.582V418.747Z" fill="#F0F0F0"/>
<path d="M540.582 428.178H535.117V433.803H540.582V428.178Z" fill="#F0F0F0"/>
<path d="M540.582 437.609H535.117V443.234H540.582V437.609Z" fill="#F0F0F0"/>
<path d="M540.582 447.058H535.117V452.684H540.582V447.058Z" fill="#F0F0F0"/>
<path d="M540.582 456.489H535.117V462.114H540.582V456.489Z" fill="#F0F0F0"/>
<path d="M540.582 465.92H535.117V471.545H540.582V465.92Z" fill="#F0F0F0"/>
<path d="M540.582 475.351H535.117V480.976H540.582V475.351Z" fill="#F0F0F0"/>
<path d="M540.582 484.782H535.117V490.407H540.582V484.782Z" fill="#F0F0F0"/>
<path d="M540.582 494.213H535.117V499.838H540.582V494.213Z" fill="#F0F0F0"/>
<path d="M540.582 503.662H535.117V509.287H540.582V503.662Z" fill="#F0F0F0"/>
<path d="M540.582 513.093H535.117V518.718H540.582V513.093Z" fill="#F0F0F0"/>
<path d="M540.582 522.524H535.117V528.149H540.582V522.524Z" fill="#F0F0F0"/>
<path d="M540.582 531.955H535.117V537.58H540.582V531.955Z" fill="#F0F0F0"/>
<path d="M540.582 541.385H535.117V547.011H540.582V541.385Z" fill="#F0F0F0"/>
<path d="M540.582 550.816H535.117V556.442H540.582V550.816Z" fill="#F0F0F0"/>
<path d="M540.582 560.266H535.117V565.891H540.582V560.266Z" fill="#F0F0F0"/>
<path d="M540.582 569.697H535.117V575.322H540.582V569.697Z" fill="#F0F0F0"/>
<path d="M489.152 427.185H483.688V432.811H489.152V427.185Z" fill="#F0F0F0"/>
<path d="M489.152 436.616H483.688V442.242H489.152V436.616Z" fill="#F0F0F0"/>
<path d="M489.152 446.065H483.688V451.691H489.152V446.065Z" fill="#F0F0F0"/>
<path d="M489.152 455.496H483.688V461.122H489.152V455.496Z" fill="#F0F0F0"/>
<path d="M489.152 464.927H483.688V470.553H489.152V464.927Z" fill="#F0F0F0"/>
<path d="M489.152 474.358H483.688V479.984H489.152V474.358Z" fill="#F0F0F0"/>
<path d="M489.152 483.789H483.688V489.414H489.152V483.789Z" fill="#F0F0F0"/>
<path d="M489.152 493.22H483.688V498.845H489.152V493.22Z" fill="#F0F0F0"/>
<path d="M489.152 502.669H483.688V508.295H489.152V502.669Z" fill="#F0F0F0"/>
<path d="M489.152 512.1H483.688V517.726H489.152V512.1Z" fill="#F0F0F0"/>
<path d="M497.84 427.185H492.375V432.811H497.84V427.185Z" fill="#F0F0F0"/>
<path d="M497.84 436.616H492.375V442.242H497.84V436.616Z" fill="#F0F0F0"/>
<path d="M497.84 446.065H492.375V451.691H497.84V446.065Z" fill="#F0F0F0"/>
<path d="M497.84 455.496H492.375V461.122H497.84V455.496Z" fill="#F0F0F0"/>
<path d="M497.84 464.927H492.375V470.553H497.84V464.927Z" fill="#F0F0F0"/>
<path d="M497.84 474.358H492.375V479.984H497.84V474.358Z" fill="#F0F0F0"/>
<path d="M497.84 483.789H492.375V489.414H497.84V483.789Z" fill="#F0F0F0"/>
<path d="M497.84 493.22H492.375V498.845H497.84V493.22Z" fill="#F0F0F0"/>
<path d="M497.84 502.669H492.375V508.295H497.84V502.669Z" fill="#F0F0F0"/>
<path d="M228.57 84.9701C228.57 79.2527 233.06 74.62 238.617 74.62C239.61 74.62 240.586 74.767 241.506 75.0612C241.358 74.0317 241.285 72.9654 241.285 71.8808C241.285 59.7842 250.798 49.9856 262.555 49.9856C263.898 49.9856 265.205 50.1143 266.474 50.3717C269.75 44.8565 275.619 41.1798 282.354 41.1798C292.529 41.1798 300.79 49.5996 300.956 60.06C301.066 60.06 301.158 60.06 301.269 60.06C310.726 60.06 318.399 67.965 318.399 77.7085C318.399 87.4519 310.726 95.3569 301.269 95.3569H238.359C232.949 95.1915 228.607 90.6323 228.607 85.0068L228.57 84.9701Z" fill="#F5F5F5"/>
<path d="M419.711 186.21C419.711 180.492 424.201 175.86 429.757 175.86C430.769 175.86 431.726 176.007 432.646 176.301C432.499 175.271 432.425 174.205 432.425 173.121C432.425 161.024 441.938 151.225 453.696 151.225C455.039 151.225 456.345 151.354 457.615 151.611C460.89 146.096 466.76 142.42 473.494 142.42C483.669 142.42 491.931 150.839 492.097 161.3C492.207 161.3 492.299 161.3 492.409 161.3C501.867 161.3 509.54 169.205 509.54 178.948C509.54 188.692 501.867 196.597 492.409 196.597H429.5C424.09 196.431 419.748 191.872 419.748 186.247L419.711 186.21Z" fill="#F5F5F5"/>
<path d="M234.547 279.471C234.547 273.754 239.036 269.121 244.593 269.121C245.605 269.121 246.562 269.268 247.482 269.562C247.335 268.533 247.261 267.466 247.261 266.382C247.261 254.285 256.774 244.487 268.532 244.487C269.875 244.487 271.181 244.615 272.451 244.873C275.726 239.357 281.596 235.681 288.33 235.681C298.505 235.681 306.767 244.101 306.932 254.561C307.043 254.561 307.135 254.561 307.245 254.561C316.703 254.561 324.376 262.466 324.376 272.209C324.376 281.953 316.703 289.858 307.245 289.858H244.336C238.926 289.692 234.584 285.133 234.584 279.508L234.547 279.471Z" fill="#F5F5F5"/>
<path d="M705.461 153.487C705.461 150.03 708.184 147.236 711.533 147.236C712.14 147.236 712.729 147.328 713.281 147.494C713.189 146.868 713.152 146.225 713.152 145.582C713.152 138.265 718.911 132.345 726.014 132.345C726.823 132.345 727.615 132.419 728.387 132.566C730.356 129.238 733.907 127.014 737.974 127.014C744.119 127.014 749.124 132.106 749.216 138.43C749.271 138.43 749.345 138.43 749.4 138.43C755.123 138.43 759.759 143.21 759.759 149.093C759.759 154.976 755.123 159.756 749.4 159.756H711.367C708.092 159.645 705.461 156.906 705.461 153.505V153.487Z" fill="#F5F5F5"/>
<path d="M127.297 161.171C127.297 157.715 130.02 154.921 133.369 154.921C133.976 154.921 134.565 155.013 135.117 155.178C135.025 154.553 134.988 153.909 134.988 153.266C134.988 145.949 140.747 140.03 147.85 140.03C148.659 140.03 149.45 140.103 150.223 140.25C152.192 136.923 155.743 134.698 159.81 134.698C165.955 134.698 170.96 139.791 171.052 146.115C171.107 146.115 171.181 146.115 171.236 146.115C176.958 146.115 181.595 150.895 181.595 156.777C181.595 162.66 176.958 167.44 171.236 167.44H133.203C129.928 167.33 127.297 164.59 127.297 161.189V161.171Z" fill="#F5F5F5"/>
<path d="M589.156 87.0658C589.156 83.6097 591.879 80.8153 595.228 80.8153C595.835 80.8153 596.424 80.9072 596.976 81.0727C596.884 80.4476 596.847 79.8042 596.847 79.1608C596.847 71.844 602.607 65.9244 609.709 65.9244C610.519 65.9244 611.31 65.998 612.083 66.145C614.051 62.8176 617.603 60.5931 621.669 60.5931C627.815 60.5931 632.819 65.6854 632.911 72.0095C632.967 72.0095 633.04 72.0095 633.095 72.0095C638.818 72.0095 643.455 76.7893 643.455 82.6721C643.455 88.5549 638.818 93.3347 633.095 93.3347H595.063C591.787 93.2244 589.156 90.4852 589.156 87.0842V87.0658Z" fill="#F5F5F5"/>
<path d="M460 685C657.032 685 816.757 675.683 816.757 664.19C816.757 652.696 657.032 643.379 460 643.379C262.968 643.379 103.242 652.696 103.242 664.19C103.242 675.683 262.968 685 460 685Z" fill="#F5F5F5"/>
<path d="M166.873 518.773C167.259 521.476 159.918 523.259 153.938 524.252C154.434 529.16 157.691 534.124 162.199 538.757C167.885 535.558 175.981 531.33 177.471 532.377C179.109 533.499 170.81 538.867 165.621 542.011C169.265 545.246 173.386 548.261 177.379 550.908C179.918 548.537 182.899 546.441 184.684 547.581C186.524 548.757 186.027 552.434 185.125 555.707C191.308 559.31 195.926 561.497 195.926 561.497C195.926 561.497 198.521 553.648 200.048 543.978C199.735 543.371 199.422 542.746 199.146 542.084C198.153 539.786 199.128 538.812 200.765 538.481C201.189 534.253 201.317 529.896 200.876 525.851C193.884 524.38 185.383 521.678 188.566 517.487C190.48 514.968 193.994 514.674 197.656 515.299C197.141 514.453 196.57 513.663 195.926 512.946C183.212 498.937 174.325 512.946 174.325 512.946C166.928 506.787 156.55 508.46 154.305 518.075C158.464 517.009 166.394 515.428 166.873 518.773Z" fill="#263238"/>
<path opacity="0.3" d="M166.873 518.773C167.259 521.476 159.918 523.259 153.938 524.252C154.434 529.16 157.691 534.124 162.199 538.757C167.885 535.558 175.981 531.33 177.471 532.377C179.109 533.499 170.81 538.867 165.621 542.011C169.265 545.246 173.386 548.261 177.379 550.908C179.918 548.537 182.899 546.441 184.684 547.581C186.524 548.757 186.027 552.434 185.125 555.707C191.308 559.31 195.926 561.497 195.926 561.497C195.926 561.497 198.521 553.648 200.048 543.978C199.735 543.371 199.422 542.746 199.146 542.084C198.153 539.786 199.128 538.812 200.765 538.481C201.189 534.253 201.317 529.896 200.876 525.851C193.884 524.38 185.383 521.678 188.566 517.487C190.48 514.968 193.994 514.674 197.656 515.299C197.141 514.453 196.57 513.663 195.926 512.946C183.212 498.937 174.325 512.946 174.325 512.946C166.928 506.787 156.55 508.46 154.305 518.075C158.464 517.009 166.394 515.428 166.873 518.773Z" fill="white"/>
<path d="M182.732 621.704L180.892 621.557C180.966 620.62 188.418 526.825 167.368 518.001C165.105 517.045 163.008 517.1 160.984 518.167C153.366 522.119 149.723 538.536 149.686 538.701L147.883 538.315C148.03 537.598 151.747 520.888 160.119 516.531C162.64 515.225 165.308 515.152 168.068 516.31C190.35 525.667 183.045 617.807 182.714 621.723L182.732 621.704Z" fill="#263238"/>
<path d="M185.403 619.664C185.035 615.454 176.424 516.218 192.506 505.684C196.37 503.166 199.792 502.614 202.718 504.103C210.317 507.927 211.311 524.16 211.347 524.84L209.507 524.95C209.507 524.785 208.532 509.085 201.89 505.739C199.608 504.599 196.793 505.077 193.518 507.228C178.356 517.174 187.151 618.487 187.243 619.498L185.403 619.664Z" fill="#263238"/>
<path d="M187.81 627.698C187.681 624.462 185.05 548.518 199.678 541.863C202.567 540.558 205.511 540.521 208.381 541.79C218.428 546.202 224.628 564.917 224.886 565.707L223.138 566.277C223.083 566.093 216.937 547.562 207.645 543.481C205.235 542.415 202.88 542.433 200.432 543.536C189.208 548.629 188.84 605.968 189.632 627.624L187.792 627.698H187.81Z" fill="#263238"/>
<path d="M184.093 624.223L182.271 624.021C184.847 601.409 189.778 541.183 181.719 533.995C180.523 532.929 179.437 532.598 178.425 532.984C173.034 535.061 169.741 554.64 168.931 562.012L167.109 561.81C167.422 558.979 170.366 534.106 177.781 531.256C179.474 530.613 181.222 531.054 182.97 532.616C193.385 541.9 184.497 620.859 184.111 624.223H184.093Z" fill="#263238"/>
<path d="M153.383 581.37H219.494L213.974 655.347H158.903L153.383 581.37Z" fill="#FFA920"/>
<path opacity="0.2" d="M173.461 581.37L175.301 655.347H213.978L219.498 581.37H173.461Z" fill="white"/>
<path d="M162.38 554.217C161.7 556.019 156.566 554.603 152.518 553.17C151.138 556.368 151.451 560.541 152.647 564.935C157.247 564.917 163.687 565.082 164.257 566.222C164.883 567.472 157.909 567.932 153.64 568.097C154.781 571.351 156.272 574.605 157.836 577.62C160.228 577.032 162.767 576.756 163.484 578.061C164.22 579.422 162.656 581.517 160.964 583.227C163.54 587.566 165.637 590.489 165.637 590.489C165.637 590.489 169.924 586.536 174.193 581.095C174.212 580.617 174.23 580.12 174.285 579.624C174.469 577.859 175.389 577.602 176.512 577.951C178.223 575.488 179.787 572.84 180.909 570.193C177.1 566.902 172.795 562.306 176.199 560.817C178.241 559.916 180.523 560.946 182.547 562.582C182.528 561.883 182.436 561.203 182.289 560.541C179.253 547.544 168.968 553.151 168.968 553.151C166.52 546.827 159.547 544.29 154.855 549.456C157.78 550.228 163.227 551.975 162.38 554.199V554.217Z" fill="#263238"/>
<path opacity="0.3" d="M162.38 554.217C161.7 556.019 156.566 554.603 152.518 553.17C151.138 556.368 151.451 560.541 152.647 564.935C157.247 564.917 163.687 565.082 164.257 566.222C164.883 567.472 157.909 567.932 153.64 568.097C154.781 571.351 156.272 574.605 157.836 577.62C160.228 577.032 162.767 576.756 163.484 578.061C164.22 579.422 162.656 581.517 160.964 583.227C163.54 587.566 165.637 590.489 165.637 590.489C165.637 590.489 169.924 586.536 174.193 581.095C174.212 580.617 174.23 580.12 174.285 579.624C174.469 577.859 175.389 577.602 176.512 577.951C178.223 575.488 179.787 572.84 180.909 570.193C177.1 566.902 172.795 562.306 176.199 560.817C178.241 559.916 180.523 560.946 182.547 562.582C182.528 561.883 182.436 561.203 182.289 560.541C179.253 547.544 168.968 553.151 168.968 553.151C166.52 546.827 159.547 544.29 154.855 549.456C157.78 550.228 163.227 551.975 162.38 554.199V554.217Z" fill="white"/>
<path d="M211.471 563.005C209.392 563.152 207.386 563.63 205.436 564.273C204.921 562.876 204.589 561.424 204.553 559.898C204.129 546.57 213.679 552.195 218.721 548.279C221.241 546.331 224.314 545.081 227.166 545.632C226.743 546.368 226.357 547.121 226.025 547.912C225.492 549.18 226.338 550.522 227.645 550.761C228.877 551 230.257 550.89 231.38 550.32C231.729 550.136 232.024 549.879 232.337 549.658C233.036 550.853 233.661 552.306 234.177 554.107C234.692 555.964 234.949 557.876 235.041 559.806C234.287 559.972 233.551 560.174 232.815 560.431C231.674 560.836 231.049 562.674 231.987 563.593C232.797 564.402 233.735 565.046 234.747 565.523C234.416 567.711 233.809 569.807 233.073 571.774C232.852 571.811 232.613 571.829 232.392 571.884C231.913 571.976 231.435 572.105 230.957 572.234C230.681 572.307 230.423 572.399 230.165 572.528C229.503 572.84 229.025 573.41 228.914 574.146C228.804 574.881 229.117 575.616 229.705 576.076C230.018 576.315 230.349 576.499 230.699 576.682C229.172 579.091 227.387 580.984 225.418 582.014C225.418 582.014 222.989 580.948 219.806 579.054C220.211 578.521 220.597 577.988 220.965 577.436C221.407 576.793 221.591 576.113 221.536 575.34C221.481 574.587 221.021 573.925 220.45 573.465C219.917 573.006 219.052 572.804 218.353 572.895C217.672 572.987 216.862 573.392 216.476 573.98C216.034 574.642 215.537 575.267 215.059 575.892C212.63 574.054 210.201 571.848 208.288 569.329C208.361 569.311 208.435 569.292 208.49 569.274C209.723 568.961 210.974 568.741 212.244 568.649C213.826 568.538 214.82 566.939 214.691 565.468C214.562 563.887 212.998 562.913 211.508 563.023L211.471 563.005Z" fill="#263238"/>
<path opacity="0.5" d="M211.471 563.005C209.392 563.152 207.386 563.63 205.436 564.273C204.921 562.876 204.589 561.424 204.553 559.898C204.129 546.57 213.679 552.195 218.721 548.279C221.241 546.331 224.314 545.081 227.166 545.632C226.743 546.368 226.357 547.121 226.025 547.912C225.492 549.18 226.338 550.522 227.645 550.761C228.877 551 230.257 550.89 231.38 550.32C231.729 550.136 232.024 549.879 232.337 549.658C233.036 550.853 233.661 552.306 234.177 554.107C234.692 555.964 234.949 557.876 235.041 559.806C234.287 559.972 233.551 560.174 232.815 560.431C231.674 560.836 231.049 562.674 231.987 563.593C232.797 564.402 233.735 565.046 234.747 565.523C234.416 567.711 233.809 569.807 233.073 571.774C232.852 571.811 232.613 571.829 232.392 571.884C231.913 571.976 231.435 572.105 230.957 572.234C230.681 572.307 230.423 572.399 230.165 572.528C229.503 572.84 229.025 573.41 228.914 574.146C228.804 574.881 229.117 575.616 229.705 576.076C230.018 576.315 230.349 576.499 230.699 576.682C229.172 579.091 227.387 580.984 225.418 582.014C225.418 582.014 222.989 580.948 219.806 579.054C220.211 578.521 220.597 577.988 220.965 577.436C221.407 576.793 221.591 576.113 221.536 575.34C221.481 574.587 221.021 573.925 220.45 573.465C219.917 573.006 219.052 572.804 218.353 572.895C217.672 572.987 216.862 573.392 216.476 573.98C216.034 574.642 215.537 575.267 215.059 575.892C212.63 574.054 210.201 571.848 208.288 569.329C208.361 569.311 208.435 569.292 208.49 569.274C209.723 568.961 210.974 568.741 212.244 568.649C213.826 568.538 214.82 566.939 214.691 565.468C214.562 563.887 212.998 562.913 211.508 563.023L211.471 563.005Z" fill="white"/>
<path d="M215.284 517.082C216.443 516.255 217.712 515.63 219.019 515.097C218.669 514.141 218.209 513.222 217.565 512.413C211.935 505.225 209.396 512.357 205.016 512.523C202.845 512.596 200.674 513.295 199.423 514.839C199.975 515.042 200.508 515.262 201.024 515.538C201.87 515.979 201.999 517.045 201.428 517.744C200.876 518.406 200.104 518.957 199.276 519.159C199.018 519.215 198.742 519.215 198.484 519.233C198.632 520.171 198.944 521.2 199.478 522.377C200.03 523.572 200.729 524.693 201.52 525.741C201.98 525.502 202.459 525.281 202.974 525.097C203.747 524.803 204.888 525.502 204.796 526.403C204.722 527.193 204.52 527.929 204.207 528.627C205.348 529.638 206.58 530.466 207.832 531.164C207.96 531.091 208.089 530.999 208.236 530.925C208.531 530.76 208.844 530.613 209.156 530.484C209.34 530.41 209.524 530.337 209.708 530.282C210.187 530.153 210.702 530.245 211.07 530.576C211.438 530.907 211.622 531.44 211.512 531.936C211.456 532.194 211.346 532.451 211.254 532.69C213.112 533.278 214.897 533.499 216.369 533.168C216.369 533.168 217.179 531.55 218.025 529.142C217.584 529.032 217.142 528.94 216.7 528.811C216.185 528.664 215.799 528.388 215.486 527.965C215.192 527.543 215.136 526.991 215.228 526.513C215.32 526.035 215.67 525.557 216.075 525.3C216.461 525.042 217.087 524.914 217.528 525.042C218.044 525.189 218.577 525.3 219.111 525.428C219.589 523.388 219.884 521.163 219.773 519.012C219.718 519.031 219.681 519.049 219.644 519.068C218.853 519.435 218.099 519.876 217.4 520.391C216.516 521.016 215.302 520.612 214.713 519.803C214.088 518.921 214.492 517.707 215.302 517.119L215.284 517.082Z" fill="#263238"/>
<path opacity="0.3" d="M215.284 517.082C216.443 516.255 217.712 515.63 219.019 515.097C218.669 514.141 218.209 513.222 217.565 512.413C211.935 505.225 209.396 512.357 205.016 512.523C202.845 512.596 200.674 513.295 199.423 514.839C199.975 515.042 200.508 515.262 201.024 515.538C201.87 515.979 201.999 517.045 201.428 517.744C200.876 518.406 200.104 518.957 199.276 519.159C199.018 519.215 198.742 519.215 198.484 519.233C198.632 520.171 198.944 521.2 199.478 522.377C200.03 523.572 200.729 524.693 201.52 525.741C201.98 525.502 202.459 525.281 202.974 525.097C203.747 524.803 204.888 525.502 204.796 526.403C204.722 527.193 204.52 527.929 204.207 528.627C205.348 529.638 206.58 530.466 207.832 531.164C207.96 531.091 208.089 530.999 208.236 530.925C208.531 530.76 208.844 530.613 209.156 530.484C209.34 530.41 209.524 530.337 209.708 530.282C210.187 530.153 210.702 530.245 211.07 530.576C211.438 530.907 211.622 531.44 211.512 531.936C211.456 532.194 211.346 532.451 211.254 532.69C213.112 533.278 214.897 533.499 216.369 533.168C216.369 533.168 217.179 531.55 218.025 529.142C217.584 529.032 217.142 528.94 216.7 528.811C216.185 528.664 215.799 528.388 215.486 527.965C215.192 527.543 215.136 526.991 215.228 526.513C215.32 526.035 215.67 525.557 216.075 525.3C216.461 525.042 217.087 524.914 217.528 525.042C218.044 525.189 218.577 525.3 219.111 525.428C219.589 523.388 219.884 521.163 219.773 519.012C219.718 519.031 219.681 519.049 219.644 519.068C218.853 519.435 218.099 519.876 217.4 520.391C216.516 521.016 215.302 520.612 214.713 519.803C214.088 518.921 214.492 517.707 215.302 517.119L215.284 517.082Z" fill="white"/>
<path d="M161.427 530.41C161.04 533.113 168.382 534.896 174.362 535.889C173.865 540.797 170.608 545.761 166.1 550.394C160.415 547.195 152.319 542.967 150.828 544.014C149.191 545.136 157.489 550.504 162.678 553.648C159.035 556.883 154.913 559.898 150.92 562.545C148.381 560.174 145.4 558.078 143.616 559.218C141.776 560.394 142.272 564.071 143.174 567.344C136.992 570.947 132.373 573.134 132.373 573.134C132.373 573.134 129.779 565.285 128.252 555.615C128.564 555.008 128.877 554.383 129.153 553.721C130.147 551.423 129.172 550.449 127.534 550.118C127.111 545.89 126.982 541.533 127.424 537.488C134.416 536.017 142.916 533.315 139.733 529.124C137.82 526.605 134.305 526.311 130.644 526.936C131.159 526.09 131.729 525.3 132.373 524.583C145.088 510.574 153.975 524.583 153.975 524.583C161.372 518.424 171.749 520.097 173.994 529.712C169.836 528.646 161.905 527.065 161.427 530.41Z" fill="#263238"/>
<path opacity="0.5" d="M161.427 530.41C161.04 533.113 168.382 534.896 174.362 535.889C173.865 540.797 170.608 545.761 166.1 550.394C160.415 547.195 152.319 542.967 150.828 544.014C149.191 545.136 157.489 550.504 162.678 553.648C159.035 556.883 154.913 559.898 150.92 562.545C148.381 560.174 145.4 558.078 143.616 559.218C141.776 560.394 142.272 564.071 143.174 567.344C136.992 570.947 132.373 573.134 132.373 573.134C132.373 573.134 129.779 565.285 128.252 555.615C128.564 555.008 128.877 554.383 129.153 553.721C130.147 551.423 129.172 550.449 127.534 550.118C127.111 545.89 126.982 541.533 127.424 537.488C134.416 536.017 142.916 533.315 139.733 529.124C137.82 526.605 134.305 526.311 130.644 526.936C131.159 526.09 131.729 525.3 132.373 524.583C145.088 510.574 153.975 524.583 153.975 524.583C161.372 518.424 171.749 520.097 173.994 529.712C169.836 528.646 161.905 527.065 161.427 530.41Z" fill="white"/>
<path d="M532.49 646.486V426.56H522.535V646.486L509.766 651.449V655.347H526.344H528.681H545.259V651.449L532.49 646.486Z" fill="#263238"/>
<path d="M716.599 646.486V426.56H706.645V646.486L693.875 651.449V655.347H710.453H712.79H729.369V651.449L716.599 646.486Z" fill="#263238"/>
<path opacity="0.5" d="M545.259 651.449V655.347H509.766V651.449L522.535 646.467V426.56H532.49V646.467L545.259 651.449Z" fill="white"/>
<path opacity="0.5" d="M729.366 651.449V655.347H693.891V651.449L706.642 646.467V426.56H716.596V646.467L729.366 651.449Z" fill="white"/>
<path opacity="0.2" d="M522.539 426.56H532.493V447.665L522.539 446.543V426.56Z" fill="black"/>
<path opacity="0.2" d="M716.603 426.56V468.291L706.648 467.17V426.56H716.603Z" fill="black"/>
<path d="M746.776 225.331H492.359V439.925H746.776V225.331Z" fill="#263238"/>
<path d="M747.036 413.434H492.086V439.925H747.036V413.434Z" fill="#FFA920"/>
<path d="M747.036 225.331H492.086V251.822H747.036V225.331Z" fill="#FFA920"/>
<g opacity="0.6">
<path d="M586.957 363.779H574.39V380.012H565.226V363.779H528.5V357.179L562.301 313.977H572.494L540.11 355.672H565.502V341.333H574.371V355.672H586.938V363.779H586.957Z" fill="white"/>
<path d="M592.609 346.995C592.609 325.486 604.128 313.224 619.621 313.224C635.113 313.224 646.521 325.486 646.521 346.995C646.521 368.504 635.003 380.766 619.621 380.766C604.238 380.766 592.609 368.504 592.609 346.995ZM637.082 346.995C637.082 330.1 629.906 321.625 619.621 321.625C609.335 321.625 602.067 330.118 602.067 346.995C602.067 363.871 609.243 372.365 619.621 372.365C629.998 372.365 637.082 363.871 637.082 346.995Z" fill="white"/>
<path d="M713.09 363.779H700.522V380.012H691.359V363.779H654.633V357.179L688.434 313.977H698.627L666.243 355.672H691.635V341.333H700.504V355.672H713.071V363.779H713.09Z" fill="white"/>
</g>
<g opacity="0.6">
<path d="M588.208 284.6V287.891H574.445V270.114H587.896V273.423H578.548V277.283H586.81V280.482H578.548V284.6H588.227H588.208Z" fill="white"/>
<path d="M602.819 287.909L599.396 282.964H595.606V287.909H591.484V270.132H599.176C603.923 270.132 606.904 272.595 606.904 276.585C606.904 279.25 605.56 281.199 603.242 282.192L607.235 287.909H602.819ZM598.955 273.496H595.606V279.692H598.955C601.476 279.692 602.745 278.533 602.745 276.603C602.745 274.673 601.476 273.515 598.955 273.515V273.496Z" fill="white"/>
<path d="M621.475 287.909L618.053 282.964H614.262V287.909H610.141V270.132H617.832C622.579 270.132 625.56 272.595 625.56 276.585C625.56 279.25 624.217 281.199 621.898 282.192L625.891 287.909H621.475ZM617.611 273.496H614.262V279.692H617.611C620.132 279.692 621.401 278.533 621.401 276.603C621.401 274.673 620.132 273.515 617.611 273.515V273.496Z" fill="white"/>
<path d="M627.695 279.011C627.695 273.735 631.817 269.82 637.429 269.82C643.041 269.82 647.162 273.699 647.162 279.011C647.162 284.324 643.022 288.203 637.429 288.203C631.835 288.203 627.695 284.288 627.695 279.011ZM642.986 279.011C642.986 275.629 640.594 273.331 637.429 273.331C634.264 273.331 631.872 275.647 631.872 279.011C631.872 282.376 634.264 284.692 637.429 284.692C640.594 284.692 642.986 282.376 642.986 279.011Z" fill="white"/>
<path d="M661.584 287.909L658.162 282.964H654.372V287.909H650.25V270.132H657.941C662.688 270.132 665.669 272.595 665.669 276.585C665.669 279.25 664.326 281.199 662.008 282.192L666 287.909H661.584ZM657.72 273.496H654.372V279.692H657.72C660.241 279.692 661.511 278.533 661.511 276.603C661.511 274.673 660.241 273.515 657.72 273.515V273.496Z" fill="white"/>
</g>
<g opacity="0.7">
<path d="M517.899 413.452L498.983 439.925H492.359V430.182L504.319 413.452H517.899Z" fill="white"/>
<path d="M525.184 439.925H511.586L530.519 413.434H544.099L525.184 439.925Z" fill="white"/>
<path d="M551.387 439.925H537.789L556.723 413.434H570.302L551.387 439.925Z" fill="white"/>
<path d="M577.59 439.925H563.992L582.926 413.434H596.523L577.59 439.925Z" fill="white"/>
<path d="M603.79 439.925H590.211L609.126 413.434H622.724L603.79 439.925Z" fill="white"/>
<path d="M629.993 439.925H616.414L635.329 413.434H648.927L629.993 439.925Z" fill="white"/>
<path d="M656.196 439.925H642.617L661.551 413.434H675.13L656.196 439.925Z" fill="white"/>
<path d="M682.41 439.925H668.812L687.746 413.434H701.325L682.41 439.925Z" fill="white"/>
<path d="M708.613 439.925H695.016L713.949 413.434H727.528L708.613 439.925Z" fill="white"/>
<path d="M746.774 413.452V423.196L734.814 439.925H721.234L740.15 413.452H746.774Z" fill="white"/>
</g>
<g opacity="0.7">
<path d="M517.899 225.331L498.983 251.822H492.359V242.06L504.319 225.331H517.899Z" fill="white"/>
<path d="M525.184 251.803H511.586L530.519 225.331H544.099L525.184 251.803Z" fill="white"/>
<path d="M551.387 251.803H537.789L556.723 225.331H570.302L551.387 251.803Z" fill="white"/>
<path d="M577.59 251.803H563.992L582.926 225.331H596.523L577.59 251.803Z" fill="white"/>
<path d="M603.79 251.803H590.211L609.126 225.331H622.724L603.79 251.803Z" fill="white"/>
<path d="M629.993 251.803H616.414L635.329 225.331H648.927L629.993 251.803Z" fill="white"/>
<path d="M656.196 251.803H642.617L661.551 225.331H675.13L656.196 251.803Z" fill="white"/>
<path d="M682.41 251.803H668.812L687.746 225.331H701.325L682.41 251.803Z" fill="white"/>
<path d="M708.613 251.803H695.016L713.949 225.331H727.528L708.613 251.803Z" fill="white"/>
<path d="M746.774 225.331V235.092L734.814 251.822H721.234L740.15 225.331H746.774Z" fill="white"/>
</g>
<path d="M654.576 674.999C714.105 674.999 762.363 670.925 762.363 665.899C762.363 660.873 714.105 656.799 654.576 656.799C595.047 656.799 546.789 660.873 546.789 665.899C546.789 670.925 595.047 674.999 654.576 674.999Z" fill="#263238"/>
<path d="M517.368 653.472L491.902 526.752H482.15L456.666 653.472L437.953 664.925V668.308H535.473V664.925L517.368 653.472Z" fill="#FFA920"/>
<path opacity="0.2" d="M535.473 664.925H437.953V669.19H535.473V664.925Z" fill="white"/>
<path opacity="0.2" d="M491.905 526.752H482.153L456.375 653.104H517.058L491.905 526.752Z" fill="white"/>
<path opacity="0.6" d="M508.905 612.09L503.109 583.007H470.67L464.727 612.09H508.905Z" fill="white"/>
<path d="M306.246 136.573H227.604C218.607 136.573 211.32 143.853 211.32 152.843V180.419C211.32 189.409 218.607 196.689 227.604 196.689H279.86L303.744 222.242L290.808 196.689H306.246C315.244 196.689 322.53 189.409 322.53 180.419V152.843C322.53 143.853 315.244 136.573 306.246 136.573Z" fill="#FFA920"/>
<path opacity="0.7" d="M306.246 136.573H227.604C218.607 136.573 211.32 143.853 211.32 152.843V180.419C211.32 189.409 218.607 196.689 227.604 196.689H279.86L303.744 222.242L290.808 196.689H306.246C315.244 196.689 322.53 189.409 322.53 180.419V152.843C322.53 143.853 315.244 136.573 306.246 136.573Z" fill="white"/>
<path d="M231.469 165.105C231.469 159.976 235.425 156.134 240.816 156.134C246.207 156.134 250.126 159.939 250.126 165.105C250.126 170.271 246.17 174.077 240.816 174.077C235.462 174.077 231.469 170.253 231.469 165.105ZM247.624 165.105C247.624 161.226 244.717 158.358 240.834 158.358C236.952 158.358 233.99 161.208 233.99 165.105C233.99 169.003 236.897 171.852 240.834 171.852C244.772 171.852 247.624 169.003 247.624 165.105Z" fill="#FFA920"/>
<path d="M252.375 167.219C252.375 163.267 255.301 160.454 259.293 160.454C263.286 160.454 266.193 163.267 266.193 167.219C266.193 171.172 263.286 174.003 259.293 174.003C255.301 174.003 252.375 171.172 252.375 167.219ZM263.765 167.219C263.765 164.388 261.851 162.568 259.293 162.568C256.736 162.568 254.804 164.388 254.804 167.219C254.804 170.05 256.736 171.907 259.293 171.907C261.851 171.907 263.765 170.05 263.765 167.219Z" fill="#FFA920"/>
<path d="M283.287 167.219C283.287 171.301 280.453 174.003 276.571 174.003C274.694 174.003 273.038 173.268 271.934 171.852V178.709H269.523V160.564H271.823V162.66C272.909 161.189 274.602 160.436 276.571 160.436C280.453 160.436 283.287 163.138 283.287 167.201V167.219ZM280.858 167.219C280.858 164.407 278.926 162.568 276.368 162.568C273.811 162.568 271.897 164.425 271.897 167.219C271.897 170.014 273.829 171.907 276.368 171.907C278.907 171.907 280.858 170.05 280.858 167.219Z" fill="#FFA920"/>
<path d="M284.938 172.459L285.931 170.547C287.053 171.356 288.857 171.926 290.586 171.926C292.813 171.926 293.751 171.245 293.751 170.124C293.751 167.146 285.361 169.72 285.361 164.443C285.361 162.072 287.495 160.454 290.899 160.454C292.629 160.454 294.579 160.914 295.738 161.649L294.708 163.561C293.512 162.789 292.169 162.513 290.881 162.513C288.765 162.513 287.753 163.285 287.753 164.351C287.753 167.477 296.18 164.921 296.18 170.087C296.18 172.496 293.972 174.021 290.439 174.021C288.231 174.021 286.06 173.341 284.956 172.477L284.938 172.459Z" fill="#FFA920"/>
<path d="M298.625 172.422C298.625 171.521 299.324 170.823 300.281 170.823C301.238 170.823 301.882 171.521 301.882 172.422C301.882 173.323 301.201 174.021 300.281 174.021C299.361 174.021 298.625 173.286 298.625 172.422ZM298.846 156.336H301.679L301.201 168.341H299.287L298.827 156.336H298.846Z" fill="#FFA920"/>
<path d="M197.281 655.439L209.094 662.222L225.82 635.456L213.988 628.654L197.281 655.439Z" fill="#FFB573"/>
<path opacity="0.2" d="M213.989 628.672L225.802 635.474L217.172 649.28L205.359 642.478L213.989 628.672Z" fill="black"/>
<path d="M212.556 653.692H195.996C195.444 653.692 194.948 654.078 194.837 654.63L192.151 666.745C191.93 667.829 192.611 668.896 193.696 669.135C193.844 669.172 193.991 669.172 194.138 669.172C199.492 669.08 203.393 668.749 210.128 668.749C214.268 668.749 226.761 669.19 232.484 669.19C238.206 669.19 238.942 663.546 236.605 663.031C226.099 660.752 218.205 657.571 214.838 654.556C214.212 653.986 213.403 653.674 212.556 653.692Z" fill="#263238"/>
<path d="M213.493 655.568C213.364 655.531 213.272 655.42 213.253 655.292C213.235 655.163 213.29 655.034 213.401 654.979C213.879 654.667 218.295 651.964 219.804 652.736C220.153 652.902 220.374 653.251 220.356 653.637C220.448 654.299 220.19 654.942 219.675 655.365C218.902 655.88 217.982 656.137 217.062 656.064C215.866 656.027 214.652 655.862 213.493 655.568ZM214.431 655.126C216.013 655.659 217.761 655.568 219.289 654.887C219.62 654.593 219.785 654.17 219.73 653.729C219.73 653.472 219.601 653.343 219.528 653.343C219.399 653.27 219.252 653.251 219.105 653.251C217.449 653.564 215.866 654.207 214.449 655.126H214.431Z" fill="#FFA920"/>
<path d="M213.4 655.641C213.308 655.567 213.234 655.457 213.253 655.347C213.253 655.163 213.602 651.247 215.185 649.96C215.553 649.629 216.068 649.482 216.546 649.538C217.043 649.538 217.485 649.887 217.595 650.383C217.871 651.817 215.148 654.814 213.75 655.586H213.602C213.602 655.586 213.492 655.641 213.437 655.641H213.4ZM215.59 650.346C214.633 651.578 214.062 653.049 213.97 654.611C215.369 653.564 217.117 651.284 216.933 650.402C216.933 650.31 216.878 650.071 216.473 650.071H216.326C216.05 650.071 215.792 650.163 215.59 650.346Z" fill="#FFA920"/>
<path d="M387.855 658.601L401.895 656.965L397.847 626.833L383.789 628.451L387.855 658.601Z" fill="#FFB573"/>
<path opacity="0.2" d="M383.789 628.451L397.847 626.833L399.926 642.386L385.887 644.004L383.789 628.451Z" fill="black"/>
<path d="M402.205 653.692H385.645C385.093 653.692 384.596 654.078 384.486 654.63L381.799 666.745C381.579 667.829 382.259 668.896 383.345 669.135C383.492 669.172 383.639 669.172 383.787 669.172C389.141 669.08 393.042 668.749 399.776 668.749C403.916 668.749 416.41 669.19 422.132 669.19C427.855 669.19 428.591 663.546 426.254 663.031C415.747 660.752 407.854 657.571 404.487 654.556C403.861 653.986 403.051 653.674 402.205 653.692Z" fill="#263238"/>
<path d="M403.125 655.568C402.997 655.531 402.905 655.42 402.886 655.292C402.868 655.163 402.923 655.034 403.033 654.979C403.512 654.667 407.928 651.964 409.437 652.736C409.786 652.902 410.007 653.251 409.989 653.637C410.081 654.299 409.823 654.942 409.308 655.365C408.535 655.88 407.615 656.137 406.695 656.064C405.499 656.027 404.285 655.862 403.125 655.568ZM404.064 655.126C405.646 655.659 407.394 655.568 408.921 654.887C409.253 654.593 409.418 654.17 409.363 653.729C409.363 653.472 409.234 653.343 409.161 653.343C409.032 653.27 408.885 653.251 408.737 653.251C407.081 653.564 405.499 654.207 404.082 655.126H404.064Z" fill="#FFA920"/>
<path d="M403.048 655.641C402.956 655.567 402.883 655.457 402.901 655.347C402.901 655.163 403.251 651.247 404.833 649.96C405.201 649.629 405.716 649.482 406.195 649.538C406.692 649.538 407.133 649.887 407.244 650.383C407.52 651.817 404.796 654.814 403.398 655.586H403.251C403.251 655.586 403.14 655.641 403.085 655.641H403.048ZM405.238 650.346C404.281 651.578 403.711 653.049 403.619 654.611C405.017 653.564 406.765 651.284 406.581 650.402C406.581 650.31 406.526 650.071 406.121 650.071H405.974C405.698 650.071 405.44 650.163 405.238 650.346Z" fill="#FFA920"/>
<path d="M401.709 636.136L378.12 630.51C378.12 630.51 361.026 506.824 320.822 450.772C315.578 443.455 309.948 437.296 303.912 432.719C301.41 463.787 298.466 496.841 295.909 514.435C289.616 557.729 228.656 641.136 228.656 641.136L207.312 632.183C207.312 632.183 256.312 541.551 258.667 498.992C261.243 452.794 262.365 371.758 262.457 362.272H334.788C341.651 399.793 393.355 485.572 401.709 636.136Z" fill="#263238"/>
<path opacity="0.3" d="M401.709 636.136L378.12 630.51C378.12 630.51 361.026 506.824 320.822 450.772C315.578 443.455 309.948 437.296 303.912 432.719C301.41 463.787 298.466 496.841 295.909 514.435C289.616 557.729 228.656 641.136 228.656 641.136L207.312 632.183C207.312 632.183 256.312 541.551 258.667 498.992C261.243 452.794 262.365 371.758 262.457 362.272H334.788C341.651 399.793 393.355 485.572 401.709 636.136Z" fill="white"/>
<path d="M378.378 282.541C378.378 288.075 378.231 293.627 378.157 299.16C378.029 304.694 377.9 310.246 377.697 315.779C377.329 326.846 376.833 337.932 376.244 348.999L376.078 347.179C376.869 352.124 377.569 357.088 378.286 362.07C379.022 367.033 379.648 372.015 380.31 376.979C380.936 381.961 381.543 386.943 382.095 391.943C382.592 396.944 383.162 401.944 383.53 406.981L374.036 408.801C372.527 403.985 371.184 399.15 369.785 394.315C368.442 389.48 367.154 384.608 365.885 379.755C364.652 374.883 363.382 370.03 362.223 365.158C361.045 360.286 359.868 355.415 358.745 350.525L358.617 349.918V348.705C358.414 337.619 358.304 326.534 358.322 315.448C358.322 309.915 358.377 304.363 358.451 298.829C358.58 293.296 358.617 287.744 358.819 282.21L378.341 282.56L378.378 282.541Z" fill="#FFB573"/>
<path d="M376.957 276.769C382.881 280.464 375.981 319.235 377.417 348.337C377.582 351.738 378.797 356.996 378.797 356.996L358.796 359.238C358.796 359.238 356.312 349.771 355.981 345.12C354.987 331.552 355.981 293.185 355.981 293.185L376.975 276.769H376.957Z" fill="#FFA920"/>
<path opacity="0.7" d="M377.423 348.337C377.589 351.738 378.803 357.014 378.803 357.014L358.784 359.257C358.784 359.257 356.319 349.789 355.969 345.12C355.711 341.627 355.583 336.479 355.546 330.78C355.491 322.177 355.601 312.286 355.73 304.822C355.711 304.804 355.73 304.804 355.73 304.804C355.84 297.984 355.969 293.185 355.969 293.185L376.963 276.769C382.888 280.464 375.988 319.235 377.423 348.337Z" fill="white"/>
<path d="M383.256 404.334L387.065 423.012L370.394 423.692C370.394 423.692 365.886 411.007 374.295 403.764L383.238 404.334H383.256Z" fill="#FFB573"/>
<path d="M383.215 436.009L370.667 433.546L370.391 423.692L387.061 423.012L383.215 436.009Z" fill="#FFB573"/>
<path d="M357.055 355.911L378.803 352.455L379.411 358.466L358.508 360.636L357.055 355.911Z" fill="#FFA920"/>
<path opacity="0.6" d="M357.055 355.911L378.803 352.455L379.411 358.466L358.508 360.636L357.055 355.911Z" fill="white"/>
<path opacity="0.1" d="M355.546 330.78C355.491 322.177 355.601 312.286 355.73 304.822C355.711 304.804 355.73 304.804 355.73 304.804C357.956 300.373 360.164 296.862 361.967 295.318C361.967 295.318 365.887 313.573 355.546 330.78Z" fill="black"/>
<path d="M404.766 640.272L374.461 635.768L375.399 627.385L406.919 631.521L404.766 640.272Z" fill="#263238"/>
<path d="M230.386 646.394L203.062 635.547L206.319 627.385L234.876 638.103L230.386 646.394Z" fill="#263238"/>
<path opacity="0.3" d="M320.824 450.772C315.58 443.455 309.949 437.296 303.914 432.719L305.92 407.018C305.92 407.018 318.45 427.534 320.824 450.772Z" fill="black"/>
<path d="M376.957 276.769C349.688 321.974 337.581 377.365 337.581 377.365L324.26 400.216L314.986 374.405C314.25 374.295 313.496 374.185 312.723 374.074C311.637 373.909 310.533 373.743 309.411 373.578C308.307 373.412 307.166 373.247 306.025 373.063C303.744 372.714 301.407 372.346 299.07 371.96C297.911 371.776 296.733 371.574 295.556 371.372C294.378 371.188 293.219 370.986 292.041 370.765C290.882 370.563 289.723 370.361 288.564 370.14C287.404 369.938 286.264 369.717 285.123 369.497C281.976 368.89 278.904 368.265 276.015 367.622C275.481 367.493 274.984 367.383 274.469 367.272C272.335 366.776 270.292 366.28 268.397 365.765C266.52 365.25 264.791 364.735 263.227 364.221C262.84 364.092 262.454 363.963 262.086 363.834C265.14 342.748 269.906 324.769 275.187 309.804C276.107 307.175 277.045 304.657 278.002 302.212C282.16 291.549 286.503 282.651 290.514 275.463C290.606 275.28 290.716 275.114 290.808 274.93C299.272 259.782 316.421 253.182 326.725 255.793C334.545 257.797 346.91 262.484 355.392 265.941C366.212 270.371 376.957 276.769 376.957 276.769Z" fill="#FFA920"/>
<path opacity="0.7" d="M376.957 276.769C349.688 321.974 337.581 377.365 337.581 377.365L324.26 400.216L314.986 374.405C314.25 374.295 313.496 374.185 312.723 374.074C311.637 373.909 310.533 373.743 309.411 373.578C308.307 373.412 307.166 373.247 306.025 373.063C303.744 372.714 301.407 372.346 299.07 371.96C297.911 371.776 296.733 371.574 295.556 371.372C294.378 371.188 293.219 370.986 292.041 370.765C290.882 370.563 289.723 370.361 288.564 370.14C287.404 369.938 286.264 369.717 285.123 369.497C281.976 368.89 278.904 368.265 276.015 367.622C275.481 367.493 274.984 367.383 274.469 367.272C272.335 366.776 270.292 366.28 268.397 365.765C266.52 365.268 264.791 364.754 263.227 364.221C262.84 364.092 262.454 363.963 262.086 363.834C265.14 342.748 269.906 324.769 275.187 309.804C276.107 307.175 277.045 304.657 278.002 302.212C282.16 291.549 286.503 282.651 290.514 275.463C290.606 275.28 290.716 275.114 290.808 274.93C299.272 259.782 316.421 253.182 326.725 255.793C334.545 257.797 346.91 262.484 355.392 265.941C366.212 270.371 376.957 276.769 376.957 276.769Z" fill="white"/>
<path opacity="0.1" d="M333.206 308.352C333.206 308.352 332.433 312.47 331.495 318.279C330.556 324.107 327.336 334.034 325.883 337.031C324.411 340.027 318.357 351.977 319.516 357.308C320.675 362.64 314.99 374.405 314.99 374.405C314.254 374.295 313.499 374.185 312.727 374.074C314.125 367.548 318.817 346.425 321.356 343.98C324.355 341.075 329.029 328.225 328.054 323.39C327.097 318.555 333.206 308.352 333.206 308.352Z" fill="black"/>
<path d="M313.279 404.334L317.088 423.012L300.418 423.692C300.418 423.692 295.91 411.007 304.319 403.764L313.261 404.334H313.279Z" fill="#FFB573"/>
<path d="M313.262 436.009L300.713 433.546L300.438 423.692L317.108 423.012L313.262 436.009Z" fill="#FFB573"/>
<path d="M323.82 256.693C325.734 261.896 340.38 280.519 340.38 280.519L353.352 265.904C353.352 265.904 351.954 264.782 350.997 262.926C350.022 261.05 349.525 258.385 351.512 255.333C352.101 254.432 353.021 253.734 353.868 252.998C354.015 252.906 354.143 252.778 354.272 252.667L347.796 228.529C343.748 237.85 333.352 255.168 323.82 256.693Z" fill="#FFB573"/>
<path opacity="0.2" d="M350.994 262.926C350.019 261.05 349.522 258.385 351.509 255.333C352.098 254.432 353.018 253.734 353.865 252.998L344.241 236.159C338.188 249.561 345.953 258.9 350.994 262.926Z" fill="black"/>
<path d="M374.738 208.215C374.738 208.215 379.963 226.452 371.002 234.89C362.042 243.328 357.57 208.675 357.57 208.675L374.738 208.215Z" fill="#FFB573"/>
<path opacity="0.4" d="M374.738 208.215C374.738 208.215 379.963 226.452 371.002 234.89C362.042 243.328 357.57 208.675 357.57 208.675L374.738 208.215Z" fill="black"/>
<path d="M344.229 253.366C349.915 259.635 357.974 260.425 364.488 257.41C368.683 255.48 372.216 251.95 374.111 247.281C374.369 246.674 374.571 246.031 374.773 245.387C378.177 233.383 376.374 205.108 364.157 207.406C354.147 209.282 343.935 207.149 339.666 216.396C338.433 219.025 337.863 221.893 337.955 224.797C338.194 238.273 337.697 246.215 344.248 253.366H344.229Z" fill="#FFB573"/>
<path d="M366.694 230.276C367.872 233.677 369.491 236.912 371.552 239.872C369.988 240.902 368.038 241.177 366.234 240.644L366.694 230.276Z" fill="#ED893E"/>
<path d="M362.238 220.661C361.998 220.606 361.759 220.68 361.594 220.863C360.545 222.113 358.944 222.794 357.306 222.702C356.957 222.647 356.626 222.886 356.57 223.235C356.515 223.584 356.754 223.915 357.104 223.97C359.165 224.136 361.189 223.308 362.532 221.727C362.771 221.47 362.753 221.066 362.495 220.827C362.403 220.771 362.311 220.716 362.219 220.68L362.238 220.661Z" fill="#263238"/>
<path d="M370.371 219.907C370.242 219.871 370.114 219.889 369.985 219.926C369.69 220.11 369.598 220.514 369.782 220.808C370.868 222.591 372.745 223.713 374.824 223.86C375.174 223.86 375.468 223.584 375.468 223.216C375.468 222.867 375.174 222.573 374.824 222.573C373.186 222.426 371.714 221.507 370.868 220.091C370.739 219.944 370.555 219.871 370.353 219.889L370.371 219.907Z" fill="#263238"/>
<path d="M340.472 234.155C339.184 234.523 339.11 240.277 340.435 245.516L338.135 246.16C336.166 243.384 333.995 239.431 332.615 234.192C329.726 223.253 329.322 216.194 330.37 210.715L348.494 208.381L349.267 214.319C347.317 215.367 346.158 217.573 347.078 219.907C349.028 224.889 346.25 232.666 342.422 235.791C342.422 235.791 342.294 233.622 340.454 234.155H340.472Z" fill="#FFB573"/>
<path opacity="0.4" d="M340.472 234.155C339.184 234.523 339.11 240.277 340.435 245.516L338.135 246.16C336.166 243.384 333.995 239.431 332.615 234.192C329.726 223.253 329.322 216.194 330.37 210.715L348.494 208.381L349.267 214.319C347.317 215.367 346.158 217.573 347.078 219.907C349.028 224.889 346.25 232.666 342.422 235.791C342.422 235.791 342.294 233.622 340.454 234.155H340.472Z" fill="black"/>
<path d="M331.591 235.589C332.971 238.696 335.51 241.141 338.675 242.372C342.888 243.972 345.391 240.313 344.581 236.122C343.827 232.408 340.754 226.967 336.356 227.206C331.959 227.445 329.953 231.747 331.591 235.589Z" fill="#FFB573"/>
<path d="M333.979 205.311C333.979 205.311 331.789 201.524 336.573 197.02C341.357 192.534 361.413 190.659 367.43 194.391C373.428 198.123 378.323 195.347 378.028 192.92C378.028 192.92 380.034 195.126 378.36 198.123C378.36 198.123 382.205 197.92 384.082 203.693C384.082 203.693 381.69 203.233 380.108 204.814C380.108 204.814 382.5 207.039 381.69 210.421C381.69 210.421 379.574 208.252 377.292 208.252C377.292 208.252 378.341 211.102 379.519 212.149C379.519 212.149 371.57 213.032 367.448 210.017C367.448 210.017 368.792 212.352 370.613 213.51C370.613 213.51 357.66 215.9 353.428 210.789C353.428 210.789 351.164 213.694 352.14 217.076C352.14 217.076 348.165 217.187 346.325 214.686C346.325 214.686 341.284 219.007 335.396 219.264C335.396 219.264 335.984 218.731 337.199 216.745C337.199 216.745 330.593 220.624 326.251 217.683C326.251 217.683 327.134 216.304 327.355 214.594L325.625 215.459C325.625 215.459 325.496 205.678 333.979 205.311Z" fill="#263238"/>
<path d="M357.59 234.431C357.203 234.541 356.798 234.614 356.338 234.688C356.154 234.706 356.007 234.578 355.971 234.412C355.952 234.228 356.081 234.081 356.246 234.045C360.386 233.53 360.938 230.607 360.957 230.478C360.994 230.313 361.159 230.184 361.325 230.221C361.49 230.258 361.619 230.423 361.582 230.588C361.582 230.625 361.067 233.456 357.553 234.449L357.59 234.431Z" fill="#ED893E"/>
<path d="M373.572 234.32C373.572 234.32 373.499 234.32 373.443 234.32C371.125 234.045 370.076 230.938 370.039 230.809C369.984 230.644 370.076 230.46 370.242 230.405C370.407 230.349 370.591 230.441 370.647 230.607C370.647 230.644 371.603 233.456 373.517 233.677C373.701 233.695 373.811 233.861 373.793 234.026C373.793 234.155 373.683 234.265 373.554 234.302L373.572 234.32Z" fill="#ED893E"/>
<path d="M358.251 229.393C358.123 230.478 358.748 231.397 359.466 231.434C360.202 231.471 360.791 230.588 360.846 229.504C360.901 228.419 360.331 227.5 359.631 227.463C358.914 227.445 358.307 228.29 358.251 229.393Z" fill="#263238"/>
<path d="M370.649 229.908C370.521 230.993 371.165 231.912 371.864 231.949C372.581 231.967 373.189 231.103 373.244 230.019C373.299 228.934 372.729 228.015 372.029 227.978C371.312 227.96 370.686 228.879 370.649 229.908Z" fill="#263238"/>
<path d="M357.088 229.449C357.088 229.449 360.271 229.522 361.596 228.548C362.921 227.555 360.492 226.599 359.277 226.599C358.063 226.599 356.26 228.511 357.069 229.467L357.088 229.449Z" fill="#FFB573"/>
<path d="M370.044 229.228C370.044 229.228 373.043 230.313 374.607 229.798C376.171 229.283 374.184 227.592 373.043 227.206C371.902 226.82 369.584 228.051 370.044 229.228Z" fill="#FFB573"/>
<path d="M367.229 249.248C367.229 249.248 365.61 249.91 363.531 250.59C359.795 251.822 354.533 253.109 354.22 250.866C354.128 250.204 354.294 249.634 354.68 249.138C356.263 246.968 361.543 246.178 365.039 245.81C365.039 245.81 365.223 247.097 365.536 247.538C366.475 248.935 367.229 249.248 367.229 249.248Z" fill="#263238"/>
<path d="M363.531 250.59C359.795 251.822 354.533 253.109 354.22 250.866C354.128 250.204 354.294 249.634 354.68 249.138C357.808 248.917 362.059 248.954 363.531 250.59Z" fill="#A02724"/>
<path d="M350.225 226.581C350.225 226.581 352.139 231.434 350.225 231.434C348.312 231.434 350.225 226.581 350.225 226.581Z" fill="white"/>
<path d="M347.1 230.772C347.1 230.772 349.014 235.626 347.1 235.626C345.187 235.626 347.1 230.772 347.1 230.772Z" fill="white"/>
<path d="M372.05 215.091C372.05 215.091 374.976 219.393 373.117 219.815C371.259 220.238 372.05 215.091 372.05 215.091Z" fill="white"/>
<path d="M373.963 238.493C373.963 238.493 375.637 243.42 373.742 243.347C371.828 243.255 373.963 238.493 373.963 238.493Z" fill="white"/>
<path d="M321.354 253.072C321.354 253.072 330.628 280.703 336.203 291.126L337.418 289.821C337.418 289.821 327.224 260.811 325.642 253.053H321.336L321.354 253.072Z" fill="#FFA920"/>
<path d="M350.295 266.455C350.295 266.455 350.222 278.699 342.898 291.126V293.185C342.898 293.185 350.185 287.008 352.43 268.643L350.314 266.455H350.295Z" fill="#FFA920"/>
<path d="M335.266 290.501L337.087 287.284C340.418 291.512 343.233 289.233 343.233 289.233L344.447 291.807L341.246 300.631H337.934L335.284 290.483L335.266 290.501Z" fill="#FFA920"/>
<path d="M341.042 296.274C341.042 296.274 339.79 326.092 341.042 343.373C341.833 354.44 342.679 374.276 342.127 379.553L337.141 383.376L333.203 377.365C333.203 377.365 336.294 369.203 334.841 348.466C333.387 327.747 338.705 297.009 338.705 297.009L341.023 296.274H341.042Z" fill="#FFA920"/>
<path d="M315.156 254.726L325.092 249.469L338.653 262.043L339.297 278.368L348.975 265.113L354.9 262.098L359.187 269.286L353.778 277.927L350.3 273.46L338.671 283.332L330.097 269.709L324.338 272.816L315.156 254.726Z" fill="#FFA920"/>
<path opacity="0.6" d="M315.156 254.726L325.092 249.469L338.653 262.043L339.297 278.368L348.975 265.113L354.9 262.098L359.187 269.286L353.778 277.927L350.3 273.46L338.671 283.332L330.097 269.709L324.338 272.816L315.156 254.726Z" fill="white"/>
<path opacity="0.1" d="M338.672 283.332L349.289 269.728L353.778 277.927L350.301 273.46L338.672 283.332Z" fill="black"/>
<path opacity="0.1" d="M338.67 283.332L333.83 265.757L324.336 272.816L330.095 269.709L338.67 283.332Z" fill="black"/>
<path opacity="0.1" d="M308.822 362.272L291.894 364.092C291.894 364.092 273.788 336.645 275.186 309.804C276.106 307.175 277.045 304.657 278.002 302.212C282.16 291.549 286.502 282.651 290.514 275.463C293.034 273.165 294.819 272.099 294.819 272.099L312.318 298.167C312.318 298.167 313.44 340.652 308.822 362.272Z" fill="black"/>
<path d="M308.402 282.541C308.402 288.075 308.255 293.627 308.181 299.16C308.052 304.694 307.923 310.246 307.721 315.779C307.353 326.846 306.856 337.932 306.267 348.999L306.102 347.179C306.893 352.124 307.592 357.088 308.31 362.07C309.046 367.033 309.671 372.015 310.334 376.979C310.959 381.961 311.567 386.943 312.119 391.943C312.615 396.944 313.186 401.944 313.554 406.981L304.059 408.801C302.551 403.985 301.207 399.15 299.809 394.315C298.466 389.48 297.178 384.608 295.908 379.755C294.675 374.883 293.406 370.03 292.247 365.158C291.069 360.286 289.891 355.415 288.769 350.525L288.64 349.918V348.705C288.438 337.619 288.327 326.534 288.346 315.448C288.346 309.915 288.401 304.363 288.475 298.829C288.603 293.296 288.64 287.744 288.843 282.21L308.365 282.56L308.402 282.541Z" fill="#FFB573"/>
<path d="M300.398 267.852C309.856 271.97 312.726 287.284 312.726 287.284C312.726 287.284 307.924 345.929 308.163 348.337C308.402 350.764 308.826 355.359 308.826 355.359L288.512 359.238C288.512 359.238 286.819 348.337 285.844 326.019C284.869 303.701 285.77 285.133 290.462 276.916C295.154 268.698 300.417 267.834 300.417 267.834L300.398 267.852Z" fill="#FFA920"/>
<path opacity="0.7" d="M300.398 267.852C309.856 271.97 312.726 287.284 312.726 287.284C312.726 287.284 307.924 345.929 308.163 348.337C308.402 350.764 308.826 355.359 308.826 355.359L288.512 359.238C288.512 359.238 286.819 348.337 285.844 326.019C284.869 303.701 285.77 285.133 290.462 276.916C295.154 268.698 300.417 267.834 300.417 267.834L300.398 267.852Z" fill="white"/>
<path d="M285.492 355.856L310.351 351.738L308.823 358.043L288.271 362.272L285.492 355.856Z" fill="#FFA920"/>
<path opacity="0.6" d="M285.492 355.856L310.351 351.738L308.823 358.043L288.271 362.272L285.492 355.856Z" fill="white"/>
<path d="M420.128 447.242L416.099 505.629C415.97 507.541 414.203 509.012 412.143 508.883L336.555 504.728C334.513 504.618 332.949 502.945 333.078 501.033L337.107 442.646C337.236 440.716 339.021 439.263 341.063 439.392L416.651 443.547C418.711 443.675 420.257 445.312 420.128 447.242Z" fill="#263238"/>
<path d="M346.05 443.161L342.02 501.548C341.891 503.46 340.107 504.93 338.064 504.802L336.555 504.71C334.513 504.599 332.949 502.927 333.078 501.015L337.107 442.628C337.236 440.697 339.021 439.245 341.063 439.374L342.572 439.466C344.615 439.576 346.179 441.23 346.05 443.161Z" fill="black"/>
<path d="M380.898 497.614L414.883 491.51C414.883 491.51 432.087 524.638 442.189 533.609L404.45 547.544C404.45 547.544 386.566 526.109 380.898 497.595V497.614Z" fill="#FFA920"/>
<path opacity="0.7" d="M380.898 497.614L414.883 491.51C414.883 491.51 432.087 524.638 442.189 533.609L404.45 547.544C404.45 547.544 386.566 526.109 380.898 497.595V497.614Z" fill="white"/>
<path d="M380.016 465.754C386.382 469.578 405.316 499.93 405.316 499.93L444.986 477.998C444.986 477.998 424.783 459.026 418.416 456.654C412.05 454.283 380.016 465.754 380.016 465.754Z" fill="#FFA920"/>
<path opacity="0.6" d="M379.461 465.754C385.938 469.578 405.184 499.93 405.184 499.93L445.517 477.998C445.517 477.998 424.983 459.026 418.506 456.654C412.029 454.283 379.461 465.754 379.461 465.754Z" fill="white"/>
<path d="M355.523 455.57C355.523 455.57 362.975 472.814 364.631 488.661L416.814 479.469C416.814 479.469 409.086 459.063 405.774 455.57C402.462 452.077 355.523 455.57 355.523 455.57Z" fill="#FFA920"/>
<path opacity="0.7" d="M355.523 455.57C355.523 455.57 362.975 472.814 364.631 488.661L416.814 479.469C416.814 479.469 409.086 459.063 405.774 455.57C402.462 452.077 355.523 455.57 355.523 455.57Z" fill="white"/>
<path d="M361.008 442.15C361.008 442.15 366.509 424.06 375.047 425.347C383.585 426.634 395.232 434.392 397.403 444.08" stroke="#263238" stroke-width="1.22" stroke-miterlimit="10"/>
<path d="M343.618 439.576C345.532 439.686 347.408 441.433 347.758 443.179L352.818 469.652C353.094 471.141 354.658 472.428 356.277 472.52L424.394 476.252C426.013 476.344 427.117 475.222 426.823 473.733L421.744 447.187C421.395 445.33 419.444 443.731 417.42 443.602L341.852 439.429L343.618 439.594V439.576Z" fill="#263238"/>
<path opacity="0.1" d="M343.618 439.576C345.532 439.686 347.408 441.433 347.758 443.179L352.818 469.652C353.094 471.141 354.658 472.428 356.277 472.52L424.394 476.252C426.013 476.344 427.117 475.222 426.823 473.733L421.744 447.187C421.395 445.33 419.444 443.731 417.42 443.602L341.852 439.429L343.618 439.594V439.576Z" fill="white"/>
<path d="M399.852 486.896L394.571 486.583C394.037 486.547 393.504 486.087 393.356 485.554L389.18 469.413L396.374 469.836L400.551 485.977C400.698 486.51 400.367 486.914 399.852 486.896Z" fill="black"/>
<path d="M398.285 481.583C398.285 481.583 398.229 481.583 398.193 481.583L393.133 481.289C392.268 481.234 391.421 480.517 391.182 479.653L390.354 476.435C390.225 475.957 390.317 475.498 390.593 475.167C390.851 474.854 391.256 474.671 391.697 474.726L396.757 475.02C397.622 475.075 398.469 475.792 398.708 476.656L399.536 479.873C399.665 480.351 399.573 480.811 399.297 481.142C399.057 481.436 398.689 481.601 398.285 481.601V481.583ZM398.229 480.737C398.358 480.737 398.542 480.737 398.634 480.59C398.726 480.48 398.763 480.278 398.708 480.075L397.88 476.858C397.751 476.344 397.199 475.865 396.702 475.847L391.642 475.553C391.513 475.553 391.329 475.553 391.237 475.7C391.145 475.81 391.109 476.013 391.164 476.215L391.992 479.432C392.121 479.947 392.673 480.425 393.169 480.443L398.229 480.737Z" fill="#263238"/>
<g opacity="0.5">
<path d="M398.285 481.583C398.285 481.583 398.229 481.583 398.193 481.583L393.133 481.289C392.268 481.234 391.421 480.517 391.182 479.653L390.354 476.435C390.225 475.957 390.317 475.498 390.593 475.167C390.851 474.854 391.256 474.671 391.697 474.726L396.757 475.02C397.622 475.075 398.469 475.792 398.708 476.656L399.536 479.873C399.665 480.351 399.573 480.811 399.297 481.142C399.057 481.436 398.689 481.601 398.285 481.601V481.583ZM398.229 480.737C398.358 480.737 398.542 480.737 398.634 480.59C398.726 480.48 398.763 480.278 398.708 480.075L397.88 476.858C397.751 476.344 397.199 475.865 396.702 475.847L391.642 475.553C391.513 475.553 391.329 475.553 391.237 475.7C391.145 475.81 391.109 476.013 391.164 476.215L391.992 479.432C392.121 479.947 392.673 480.425 393.169 480.443L398.229 480.737Z" fill="white"/>
</g>
</g>
<defs>
<clipPath id="clip0_1329_16386">
<rect width="920" height="685" fill="white"/>
</clipPath>
</defs>
</svg>
